<svg width="20" height="20" viewBox="0 0 20 20" fill="none" xmlns="http://www.w3.org/2000/svg">
<path d="M18.3337 6.66733V10.0007M8.54199 4.58399H5.66699C4.26686 4.58399 3.56679 4.58399 3.03201 4.85648C2.56161 5.09616 2.17916 5.47861 1.93947 5.94902C1.66699 6.4838 1.66699 7.18386 1.66699 8.58399L1.66699 9.58399C1.66699 10.3606 1.66699 10.7488 1.79386 11.0551C1.96302 11.4635 2.28747 11.788 2.69585 11.9571C3.00214 12.084 3.39042 12.084 4.16699 12.084V15.6257C4.16699 15.8191 4.16699 15.9159 4.17502 15.9974C4.25296 16.7886 4.879 17.4147 5.6703 17.4926C5.75178 17.5007 5.84852 17.5007 6.04199 17.5007C6.23547 17.5007 6.33221 17.5007 6.41369 17.4926C7.20498 17.4147 7.83103 16.7886 7.90897 15.9974C7.91699 15.9159 7.91699 15.8191 7.91699 15.6257V12.084H8.54199C10.014 12.084 11.8147 12.8731 13.2039 13.6304C14.0143 14.0722 14.4196 14.2931 14.685 14.2606C14.9311 14.2304 15.1172 14.1199 15.2614 13.9183C15.417 13.7008 15.417 13.2657 15.417 12.3954V4.27256C15.417 3.40232 15.417 2.9672 15.2614 2.74973C15.1172 2.54808 14.9311 2.43758 14.685 2.40743C14.4196 2.37493 14.0143 2.59582 13.2039 3.03762C11.8147 3.79492 10.014 4.58399 8.54199 4.58399Z" stroke="#94A3B8" stroke-width="1.5" stroke-linecap="round" stroke-linejoin="round"/>
</svg>
