<svg width="20" height="20" viewBox="0 0 20 20" fill="none" xmlns="http://www.w3.org/2000/svg">
<path d="M15.708 10.1243H13.458C12.4179 10.1243 11.7596 9.88132 11.3553 9.47705C10.951 9.07277 10.708 8.41444 10.708 7.37435V4.29102C10.708 3.25093 10.951 2.5926 11.3553 2.18832C11.7596 1.78404 12.4179 1.54102 13.458 1.54102H15.708C16.7481 1.54102 17.4064 1.78404 17.8107 2.18832C18.215 2.5926 18.458 3.25093 18.458 4.29102V7.37435C18.458 8.41444 18.215 9.07277 17.8107 9.47705C17.4064 9.88132 16.7481 10.1243 15.708 10.1243ZM13.458 1.79102C12.6739 1.79102 11.9898 1.9021 11.5295 2.36246C11.0691 2.82283 10.958 3.50695 10.958 4.29102V7.37435C10.958 8.15841 11.0691 8.84254 11.5295 9.3029C11.9898 9.76327 12.6739 9.87435 13.458 9.87435H15.708C16.4921 9.87435 17.1762 9.76327 17.6366 9.3029C18.0969 8.84254 18.208 8.15841 18.208 7.37435V4.29102C18.208 3.50695 18.0969 2.82283 17.6366 2.36246C17.1762 1.9021 16.4921 1.79102 15.708 1.79102H13.458Z" fill="#292D32" stroke="#94A3B8"/>
<path d="M6.54199 18.4583H4.29199C3.2519 18.4583 2.59357 18.2153 2.1893 17.811C1.78502 17.4068 1.54199 16.7484 1.54199 15.7083V12.625C1.54199 11.5849 1.78502 10.9266 2.1893 10.5223C2.59357 10.118 3.2519 9.875 4.29199 9.875H6.54199C7.58208 9.875 8.24041 10.118 8.64469 10.5223C9.04897 10.9266 9.29199 11.5849 9.29199 12.625V15.7083C9.29199 16.7484 9.04897 17.4068 8.64469 17.811C8.24041 18.2153 7.58208 18.4583 6.54199 18.4583ZM4.29199 10.125C3.50793 10.125 2.8238 10.2361 2.36344 10.6964C1.90308 11.1568 1.79199 11.8409 1.79199 12.625V15.7083C1.79199 16.4924 1.90308 17.1765 2.36344 17.6369C2.8238 18.0973 3.50793 18.2083 4.29199 18.2083H6.54199C7.32606 18.2083 8.01018 18.0973 8.47055 17.6369C8.93091 17.1765 9.04199 16.4924 9.04199 15.7083V12.625C9.04199 11.8409 8.93091 11.1568 8.47055 10.6964C8.01018 10.2361 7.32606 10.125 6.54199 10.125H4.29199Z" fill="#292D32" stroke="#94A3B8"/>
<path d="M18.9665 12.5L18.4665 12.4988C18.4588 15.7822 15.7818 18.4583 12.4998 18.4583C12.4582 18.4583 12.4146 18.4331 12.3934 18.3956C12.3717 18.3572 12.3737 18.3093 12.3936 18.2766L12.3936 18.2766L12.3952 18.2739L13.2702 16.8156L13.2703 16.8156L13.2734 16.8103C13.3027 16.7601 13.375 16.731 13.4479 16.7736C13.4977 16.8026 13.5267 16.874 13.4856 16.9463L13.2628 17.3178L12.6535 18.3331L13.8061 18.0617C16.3252 17.4684 18.2165 15.2055 18.2165 12.5C18.2165 12.4699 18.2288 12.4386 18.2544 12.4129C18.2801 12.3873 18.3114 12.375 18.3415 12.375C18.3716 12.375 18.4029 12.3873 18.4286 12.4129C18.4542 12.4386 18.4665 12.4699 18.4665 12.5H18.9665ZM18.9665 12.5C18.9665 12.1583 18.6832 11.875 18.3415 11.875C17.9998 11.875 17.7165 12.1583 17.7165 12.5C17.7165 14.7062 16.3366 16.5924 14.3995 17.3537L11.9665 18.0167C11.8498 18.2083 11.8498 18.45 11.9582 18.6417C12.0665 18.8333 12.2748 18.9583 12.4998 18.9583C16.0582 18.9583 18.9582 16.0583 18.9665 12.5Z" fill="#292D32" stroke="#94A3B8"/>
<path d="M7.60656 1.72271L7.60654 1.7227L7.60427 1.72651L6.72991 3.1921C6.72984 3.19222 6.72977 3.19234 6.7297 3.19245C6.69627 3.24772 6.62193 3.26825 6.56105 3.23104L6.55757 3.22894C6.50204 3.19562 6.48135 3.12109 6.51863 3.06007L6.52074 3.0566L6.74574 2.6816L7.35428 1.66736L6.20277 1.93757C3.67426 2.5309 1.79199 4.79462 1.79199 7.49935C1.79199 7.5295 1.77971 7.56078 1.75406 7.58642C1.72842 7.61206 1.69714 7.62435 1.66699 7.62435C1.63684 7.62435 1.60556 7.61206 1.57992 7.58642C1.55428 7.56078 1.54199 7.5295 1.54199 7.49935C1.54199 4.21716 4.21813 1.54102 7.50033 1.54102C7.54195 1.54102 7.58554 1.56626 7.60671 1.60371C7.62842 1.64212 7.62642 1.69008 7.60656 1.72271Z" fill="#292D32" stroke="#94A3B8"/>
</svg>
