<svg width="20" height="20" viewBox="0 0 20 20" fill="none" xmlns="http://www.w3.org/2000/svg">
<path d="M1.72342 3.83242C2.39009 0.949089 6.73175 0.949089 7.39009 3.83242C7.78175 5.52409 6.70675 6.95742 5.77342 7.84909C5.09009 8.49909 4.01509 8.49075 3.33175 7.84909C2.40675 6.95742 1.33175 5.52409 1.72342 3.83242Z" stroke="#94A3B8" stroke-width="1.5"/>
<path d="M12.5603 13.8324C13.2269 10.9491 17.5936 10.9491 18.2603 13.8324C18.652 15.5241 17.5769 16.9574 16.6353 17.8491C15.9519 18.4991 14.8686 18.4908 14.1853 17.8491C13.2436 16.9574 12.1686 15.5241 12.5603 13.8324Z" stroke="#94A3B8" stroke-width="1.5"/>
<path d="M10.0014 4.16602H12.2347C13.7764 4.16602 14.493 6.07435 13.3347 7.09102L6.67638 12.916C5.51805 13.9243 6.23471 15.8327 7.76804 15.8327H10.0014" stroke="#94A3B8" stroke-width="1.5" stroke-linecap="round" stroke-linejoin="round"/>
<path d="M4.57307 4.58268H4.5827" stroke="#94A3B8" stroke-width="2" stroke-linecap="round" stroke-linejoin="round"/>
<path d="M15.4061 14.5827H15.4157" stroke="#94A3B8" stroke-width="2" stroke-linecap="round" stroke-linejoin="round"/>
</svg>
