<svg width="20" height="20" viewBox="0 0 20 20" fill="none" xmlns="http://www.w3.org/2000/svg">
<path d="M6.66699 1.66602V4.16602" stroke="#94A3B8" stroke-width="1.5" stroke-miterlimit="10" stroke-linecap="round" stroke-linejoin="round"/>
<path d="M13.333 1.66602V4.16602" stroke="#94A3B8" stroke-width="1.5" stroke-miterlimit="10" stroke-linecap="round" stroke-linejoin="round"/>
<path d="M13.3333 2.91602C16.1083 3.06602 17.5 4.12435 17.5 8.04102V13.191C17.5 16.6243 16.6667 18.341 12.5 18.341H7.5C3.33333 18.341 2.5 16.6243 2.5 13.191V8.04102C2.5 4.12435 3.89167 3.07435 6.66667 2.91602H13.3333Z" stroke="#94A3B8" stroke-width="1.5" stroke-miterlimit="10" stroke-linecap="round" stroke-linejoin="round"/>
<path d="M17.2913 14.666H2.70801" stroke="#94A3B8" stroke-width="1.5" stroke-miterlimit="10" stroke-linecap="round" stroke-linejoin="round"/>
<path d="M8.94085 9.21956C8.73496 9.05757 8.60866 8.82835 8.60866 8.51667C8.60866 8.12331 8.75902 7.85824 8.98189 7.68048C9.21805 7.49212 9.57246 7.375 10.0003 7.375C10.4281 7.375 10.7798 7.49204 11.0134 7.67955C11.234 7.85653 11.3837 8.12157 11.3837 8.51667C11.3837 8.81978 11.2707 9.03876 11.0697 9.2045C11.1872 9.02289 11.2503 8.80729 11.2503 8.575C11.2503 8.22918 11.1135 7.9211 10.8603 7.70744C10.6167 7.50191 10.3058 7.41667 10.0003 7.41667C9.69484 7.41667 9.38398 7.50191 9.14039 7.70744C8.88716 7.9211 8.75033 8.22918 8.75033 8.575C8.75033 8.81375 8.81696 9.03486 8.94085 9.21956ZM11.4503 10.8917C11.4503 10.6942 11.4086 10.5111 11.3304 10.349C11.4983 10.5369 11.5837 10.7697 11.5837 11.025C11.5837 11.4004 11.4446 11.6718 11.2101 11.8602C10.9632 12.0586 10.5645 12.2 10.0003 12.2C9.43135 12.2 9.03327 12.0583 8.78801 11.8607C8.55525 11.6731 8.41699 11.4021 8.41699 11.025C8.41699 10.7733 8.50031 10.544 8.66587 10.3546C8.59032 10.5154 8.55033 10.6966 8.55033 10.8917C8.55033 11.2903 8.71713 11.6319 9.01211 11.8613C9.29246 12.0794 9.64868 12.1667 10.0003 12.1667C10.352 12.1667 10.7082 12.0794 10.9885 11.8613C11.2835 11.6319 11.4503 11.2903 11.4503 10.8917Z" fill="#101218" stroke="#94A3B8"/>
</svg>
