<svg width="20" height="20" viewBox="0 0 20 20" fill="none" xmlns="http://www.w3.org/2000/svg">
<path d="M14.9984 5.96602C14.9484 5.95769 14.8901 5.95769 14.8401 5.96602C13.6901 5.92435 12.7734 4.98268 12.7734 3.81602C12.7734 2.62435 13.7318 1.66602 14.9234 1.66602C16.1151 1.66602 17.0734 2.63268 17.0734 3.81602C17.0651 4.98268 16.1484 5.92435 14.9984 5.96602Z" stroke="#94A3B8" stroke-width="1.5" stroke-linecap="round" stroke-linejoin="round"/>
<path d="M14.1393 12.0328C15.2809 12.2245 16.5393 12.0245 17.4226 11.4328C18.5976 10.6495 18.5976 9.36615 17.4226 8.58282C16.5309 7.99115 15.2559 7.79115 14.1143 7.99115" stroke="#94A3B8" stroke-width="1.5" stroke-linecap="round" stroke-linejoin="round"/>
<path d="M4.97539 5.96602C5.02539 5.95769 5.08372 5.95769 5.13372 5.96602C6.28372 5.92435 7.20039 4.98268 7.20039 3.81602C7.20039 2.62435 6.24206 1.66602 5.05039 1.66602C3.85873 1.66602 2.90039 2.63268 2.90039 3.81602C2.90872 4.98268 3.82539 5.92435 4.97539 5.96602Z" stroke="#94A3B8" stroke-width="1.5" stroke-linecap="round" stroke-linejoin="round"/>
<path d="M5.8345 12.0328C4.69284 12.2245 3.43451 12.0245 2.55117 11.4328C1.37617 10.6495 1.37617 9.36615 2.55117 8.58282C3.44284 7.99115 4.71784 7.79115 5.8595 7.99115" stroke="#94A3B8" stroke-width="1.5" stroke-linecap="round" stroke-linejoin="round"/>
<path d="M9.99844 12.1926C9.94844 12.1842 9.8901 12.1842 9.8401 12.1926C8.6901 12.1509 7.77344 11.2092 7.77344 10.0426C7.77344 8.85091 8.73177 7.89258 9.92344 7.89258C11.1151 7.89258 12.0734 8.85925 12.0734 10.0426C12.0651 11.2092 11.1484 12.1592 9.99844 12.1926Z" stroke="#94A3B8" stroke-width="1.5" stroke-linecap="round" stroke-linejoin="round"/>
<path d="M7.57363 14.8168C6.39863 15.6001 6.39863 16.8835 7.57363 17.6668C8.90697 18.5585 11.0903 18.5585 12.4236 17.6668C13.5986 16.8835 13.5986 15.6001 12.4236 14.8168C11.0986 13.9335 8.90697 13.9335 7.57363 14.8168Z" stroke="#94A3B8" stroke-width="1.5" stroke-linecap="round" stroke-linejoin="round"/>
</svg>
