<svg width="20" height="20" viewBox="0 0 20 20" fill="none" xmlns="http://www.w3.org/2000/svg">
<path d="M18.3337 7.09935V3.31602C18.3337 2.14102 17.8003 1.66602 16.4753 1.66602H13.1087C11.7837 1.66602 11.2503 2.14102 11.2503 3.31602V7.09102C11.2503 8.27435 11.7837 8.74102 13.1087 8.74102H16.4753C17.8003 8.74935 18.3337 8.27435 18.3337 7.09935Z" stroke="#94A3B8" stroke-width="1.5" stroke-linecap="round" stroke-linejoin="round"/>
<path d="M18.3337 16.4744V13.1077C18.3337 11.7827 17.8003 11.2493 16.4753 11.2493H13.1087C11.7837 11.2493 11.2503 11.7827 11.2503 13.1077V16.4744C11.2503 17.7994 11.7837 18.3327 13.1087 18.3327H16.4753C17.8003 18.3327 18.3337 17.7994 18.3337 16.4744Z" stroke="#94A3B8" stroke-width="1.5" stroke-linecap="round" stroke-linejoin="round"/>
<path d="M8.75033 7.09935V3.31602C8.75033 2.14102 8.21699 1.66602 6.89199 1.66602H3.52533C2.20033 1.66602 1.66699 2.14102 1.66699 3.31602V7.09102C1.66699 8.27435 2.20033 8.74102 3.52533 8.74102H6.89199C8.21699 8.74935 8.75033 8.27435 8.75033 7.09935Z" stroke="#94A3B8" stroke-width="1.5" stroke-linecap="round" stroke-linejoin="round"/>
<path d="M8.75033 16.4744V13.1077C8.75033 11.7827 8.21699 11.2493 6.89199 11.2493H3.52533C2.20033 11.2493 1.66699 11.7827 1.66699 13.1077V16.4744C1.66699 17.7994 2.20033 18.3327 3.52533 18.3327H6.89199C8.21699 18.3327 8.75033 17.7994 8.75033 16.4744Z" stroke="#94A3B8" stroke-width="1.5" stroke-linecap="round" stroke-linejoin="round"/>
</svg>
