<svg width="20" height="20" viewBox="0 0 20 20" fill="none" xmlns="http://www.w3.org/2000/svg">
<path d="M10 17.5C14.1421 17.5 17.5 14.1421 17.5 10C17.5 5.85786 14.1421 2.5 10 2.5C5.85786 2.5 2.5 5.85786 2.5 10C2.5 14.1421 5.85786 17.5 10 17.5Z" stroke="#94A3B8" stroke-width="1.5" stroke-linecap="round" stroke-linejoin="round"/>
<path d="M10 14.166V14.1743" stroke="#94A3B8" stroke-width="1.5" stroke-linecap="round" stroke-linejoin="round"/>
<path d="M9.99967 11.251C9.98433 10.9804 10.0573 10.7122 10.2076 10.4868C10.3579 10.2613 10.5774 10.0908 10.833 10.001C11.1462 9.88117 11.4274 9.69031 11.6543 9.44341C11.8812 9.19651 12.0478 8.9003 12.1408 8.57811C12.2338 8.25591 12.2507 7.91653 12.1903 7.58667C12.1298 7.25682 11.9936 6.94549 11.7924 6.67721C11.5912 6.40893 11.3305 6.19102 11.0308 6.04063C10.731 5.89024 10.4005 5.81149 10.0651 5.81056C9.72976 5.80963 9.39878 5.88655 9.09821 6.03527C8.79764 6.184 8.5357 6.40046 8.33301 6.66762" stroke="#94A3B8" stroke-width="1.5" stroke-linecap="round" stroke-linejoin="round"/>
</svg>
