<svg width="20" height="20" viewBox="0 0 20 20" fill="none" xmlns="http://www.w3.org/2000/svg">
<path d="M11.667 7.49935H9.58366C8.8933 7.49935 8.33366 8.05899 8.33366 8.74935C8.33366 9.4397 8.8933 9.99935 9.58366 9.99935H10.417C11.1073 9.99935 11.667 10.559 11.667 11.2493C11.667 11.9397 11.1073 12.4993 10.417 12.4993H8.33366M10.0003 6.66602V7.49935M10.0003 12.4993V13.3327M15.0003 9.99935H15.0087M5.00033 9.99935H5.00866M1.66699 6.83268L1.66699 13.166C1.66699 14.0994 1.66699 14.5661 1.84865 14.9227C2.00844 15.2363 2.2634 15.4912 2.57701 15.651C2.93353 15.8327 3.40024 15.8327 4.33366 15.8327L15.667 15.8327C16.6004 15.8327 17.0671 15.8327 17.4236 15.651C17.7372 15.4912 17.9922 15.2363 18.152 14.9227C18.3337 14.5661 18.3337 14.0994 18.3337 13.166V6.83268C18.3337 5.89926 18.3337 5.43255 18.152 5.07603C17.9922 4.76243 17.7372 4.50746 17.4236 4.34767C17.0671 4.16602 16.6004 4.16602 15.667 4.16602L4.33366 4.16602C3.40024 4.16602 2.93353 4.16602 2.57701 4.34767C2.2634 4.50746 2.00844 4.76243 1.84865 5.07603C1.66699 5.43255 1.66699 5.89926 1.66699 6.83268ZM15.417 9.99935C15.417 10.2295 15.2304 10.416 15.0003 10.416C14.7702 10.416 14.5837 10.2295 14.5837 9.99935C14.5837 9.76923 14.7702 9.58268 15.0003 9.58268C15.2304 9.58268 15.417 9.76923 15.417 9.99935ZM5.41699 9.99935C5.41699 10.2295 5.23044 10.416 5.00033 10.416C4.77021 10.416 4.58366 10.2295 4.58366 9.99935C4.58366 9.76923 4.77021 9.58268 5.00033 9.58268C5.23044 9.58268 5.41699 9.76923 5.41699 9.99935Z" stroke="#94A3B8" stroke-width="1.5" stroke-linecap="round" stroke-linejoin="round"/>
</svg>
