<svg width="20" height="20" viewBox="0 0 20 20" fill="none" xmlns="http://www.w3.org/2000/svg">
<path d="M1.875 3.90625C1.875 3.36753 2.08901 2.85087 2.46994 2.46994C2.85087 2.08901 3.36753 1.875 3.90625 1.875H12.3438C12.8825 1.875 13.3991 2.08901 13.7801 2.46994C14.161 2.85087 14.375 3.36753 14.375 3.90625V11.875H18.125V15.3125C18.125 16.0584 17.8287 16.7738 17.3012 17.3012C16.7738 17.8287 16.0584 18.125 15.3125 18.125H4.6875C3.94158 18.125 3.22621 17.8287 2.69876 17.3012C2.17132 16.7738 1.875 16.0584 1.875 15.3125V3.90625ZM14.375 16.875H15.3125C15.7269 16.875 16.1243 16.7104 16.4174 16.4174C16.7104 16.1243 16.875 15.7269 16.875 15.3125V13.125H14.375V16.875ZM3.90625 3.125C3.475 3.125 3.125 3.475 3.125 3.90625V15.3125C3.125 15.7269 3.28962 16.1243 3.58265 16.4174C3.87567 16.7104 4.2731 16.875 4.6875 16.875H13.125V3.90625C13.125 3.475 12.775 3.125 12.3438 3.125H3.90625ZM5.625 5.625C5.45924 5.625 5.30027 5.69085 5.18306 5.80806C5.06585 5.92527 5 6.08424 5 6.25C5 6.41576 5.06585 6.57473 5.18306 6.69194C5.30027 6.80915 5.45924 6.875 5.625 6.875H10.625C10.7908 6.875 10.9497 6.80915 11.0669 6.69194C11.1842 6.57473 11.25 6.41576 11.25 6.25C11.25 6.08424 11.1842 5.92527 11.0669 5.80806C10.9497 5.69085 10.7908 5.625 10.625 5.625H5.625ZM5 10C5 9.83424 5.06585 9.67527 5.18306 9.55806C5.30027 9.44085 5.45924 9.375 5.625 9.375H10.625C10.7908 9.375 10.9497 9.44085 11.0669 9.55806C11.1842 9.67527 11.25 9.83424 11.25 10C11.25 10.1658 11.1842 10.3247 11.0669 10.4419C10.9497 10.5592 10.7908 10.625 10.625 10.625H5.625C5.45924 10.625 5.30027 10.5592 5.18306 10.4419C5.06585 10.3247 5 10.1658 5 10ZM5.625 13.125C5.45924 13.125 5.30027 13.1908 5.18306 13.3081C5.06585 13.4253 5 13.5842 5 13.75C5 13.9158 5.06585 14.0747 5.18306 14.1919C5.30027 14.3092 5.45924 14.375 5.625 14.375H8.125C8.29076 14.375 8.44973 14.3092 8.56694 14.1919C8.68415 14.0747 8.75 13.9158 8.75 13.75C8.75 13.5842 8.68415 13.4253 8.56694 13.3081C8.44973 13.1908 8.29076 13.125 8.125 13.125H5.625Z" fill="#94A3B8"/>
</svg>
