<svg width="20" height="20" viewBox="0 0 20 20" fill="none" xmlns="http://www.w3.org/2000/svg">
<path d="M7.50033 15.416H12.5003M5.50033 1.66602H14.5003C14.967 1.66602 15.2004 1.66602 15.3787 1.75684C15.5355 1.83674 15.6629 1.96422 15.7428 2.12102C15.8337 2.29928 15.8337 2.53264 15.8337 2.99935V4.72811C15.8337 5.13576 15.8337 5.33959 15.7876 5.5314C15.7468 5.70146 15.6794 5.86404 15.5881 6.01316C15.485 6.18135 15.3409 6.32548 15.0526 6.61373L12.6098 9.05654C12.2798 9.38655 12.1148 9.55156 12.053 9.74184C11.9986 9.9092 11.9986 10.0895 12.053 10.2569C12.1148 10.4471 12.2798 10.6121 12.6098 10.9422L15.0526 13.385C15.3409 13.6732 15.485 13.8173 15.5881 13.9855C15.6794 14.1347 15.7468 14.2972 15.7876 14.4673C15.8337 14.6591 15.8337 14.8629 15.8337 15.2706V16.9993C15.8337 17.4661 15.8337 17.6994 15.7428 17.8777C15.6629 18.0345 15.5355 18.162 15.3787 18.2419C15.2004 18.3327 14.967 18.3327 14.5003 18.3327H5.50033C5.03362 18.3327 4.80026 18.3327 4.622 18.2419C4.4652 18.162 4.33771 18.0345 4.25782 17.8777C4.16699 17.6994 4.16699 17.4661 4.16699 16.9993V15.2706C4.16699 14.8629 4.16699 14.6591 4.21304 14.4673C4.25387 14.2972 4.32121 14.1347 4.41259 13.9855C4.51566 13.8173 4.65979 13.6732 4.94804 13.385L7.39085 10.9422C7.72086 10.6121 7.88587 10.4471 7.94769 10.2569C8.00208 10.0895 8.00208 9.9092 7.94769 9.74184C7.88587 9.55156 7.72086 9.38655 7.39085 9.05654L4.94804 6.61373C4.65979 6.32548 4.51566 6.18135 4.41259 6.01316C4.32121 5.86404 4.25387 5.70146 4.21304 5.5314C4.16699 5.33959 4.16699 5.13576 4.16699 4.72811V2.99935C4.16699 2.53264 4.16699 2.29928 4.25782 2.12102C4.33771 1.96422 4.4652 1.83674 4.622 1.75684C4.80026 1.66602 5.03362 1.66602 5.50033 1.66602Z" stroke="#94A3B8" stroke-width="1.5" stroke-linecap="round" stroke-linejoin="round"/>
</svg>
