<?xml version="1.0" encoding="UTF-8"?>
<!DOCTYPE svg PUBLIC "-//W3C//DTD SVG 1.1//EN" "http://www.w3.org/Graphics/SVG/1.1/DTD/svg11.dtd">
<svg xmlns="http://www.w3.org/2000/svg" version="1.1" width="96px" height="96px" style="shape-rendering:geometricPrecision; text-rendering:geometricPrecision; image-rendering:optimizeQuality; fill-rule:evenodd; clip-rule:evenodd" xmlns:xlink="http://www.w3.org/1999/xlink">
<g><path style="opacity:0.984" fill="#1a9f5a" d="M 73.5,16.5 C 73.6309,17.3764 73.2975,18.0431 72.5,18.5C 63.105,23.5287 53.7717,28.5287 44.5,33.5C 42.8267,34.343 41.66,35.6763 41,37.5C 39.3876,33.5341 37.7209,33.5341 36,37.5C 35.6012,37.2716 35.4346,36.9382 35.5,36.5C 35.2172,35.7109 34.7172,35.0442 34,34.5C 32.3333,34.5 30.6667,34.5 29,34.5C 26.5397,35.755 25.373,37.755 25.5,40.5C 28.925,40.3668 29.2583,41.0335 26.5,42.5C 20.0411,45.2294 13.7077,48.2294 7.5,51.5C 6.08868,34.1551 12.7553,20.9885 27.5,12C 39.2188,6.83043 51.2188,6.16377 63.5,10C 67.0689,11.9417 70.4022,14.1084 73.5,16.5 Z"/></g>
<g><path style="opacity:0.985" fill="#199a56" d="M 73.5,16.5 C 79.4948,21.163 83.4948,27.163 85.5,34.5C 85.762,35.9778 85.4287,37.3112 84.5,38.5C 79.5986,41.1183 74.5986,43.4516 69.5,45.5C 69.9155,41.6249 69.4155,37.9582 68,34.5C 65.5776,35.0475 63.0776,35.3809 60.5,35.5C 61.6113,36.6113 62.278,37.9446 62.5,39.5C 61.1441,41.2954 60.3108,43.2954 60,45.5C 59.2214,43.1929 59.7214,41.1929 61.5,39.5C 60.7261,38.2888 59.8928,38.2888 59,39.5C 58.51,38.2068 58.3433,36.8734 58.5,35.5C 57.9032,34.8614 57.0698,34.528 56,34.5C 54.4022,35.4077 53.2355,36.4077 52.5,37.5C 52.5,36.5 52.5,35.5 52.5,34.5C 51.0413,34.5674 49.7079,34.2341 48.5,33.5C 47.1667,33.5 45.8333,33.5 44.5,33.5C 53.7717,28.5287 63.105,23.5287 72.5,18.5C 73.2975,18.0431 73.6309,17.3764 73.5,16.5 Z"/></g>
<g><path style="opacity:1" fill="#56ae82" d="M 58.5,35.5 C 57.8609,39.096 57.5276,42.7627 57.5,46.5C 57.1667,46.5 56.8333,46.5 56.5,46.5C 56.6653,42.8183 56.4986,39.1516 56,35.5C 55.6667,37.8333 55.3333,40.1667 55,42.5C 54.6232,41.0577 53.7899,40.0577 52.5,39.5C 52.5,38.8333 52.5,38.1667 52.5,37.5C 53.2355,36.4077 54.4022,35.4077 56,34.5C 57.0698,34.528 57.9032,34.8614 58.5,35.5 Z"/></g>
<g><path style="opacity:1" fill="#8ebfac" d="M 69.5,45.5 C 69.4747,49.2838 67.8081,50.2838 64.5,48.5C 63.469,47.7515 62.3024,47.0848 61,46.5C 59.5915,50.4453 58.4248,50.4453 57.5,46.5C 57.5276,42.7627 57.8609,39.096 58.5,35.5C 58.3433,36.8734 58.51,38.2068 59,39.5C 59.8928,38.2888 60.7261,38.2888 61.5,39.5C 59.7214,41.1929 59.2214,43.1929 60,45.5C 60.3108,43.2954 61.1441,41.2954 62.5,39.5C 62.278,37.9446 61.6113,36.6113 60.5,35.5C 63.0776,35.3809 65.5776,35.0475 68,34.5C 69.4155,37.9582 69.9155,41.6249 69.5,45.5 Z"/></g>
<g><path style="opacity:1" fill="#7bbd9f" d="M 44.5,33.5 C 45.8333,33.5 47.1667,33.5 48.5,33.5C 47.9759,35.3057 47.3092,36.9724 46.5,38.5C 45.234,39.0899 43.9007,39.5899 42.5,40C 43.0848,41.3024 43.7515,42.469 44.5,43.5C 46.337,43.6395 46.6704,44.3061 45.5,45.5C 44.914,45.2907 44.414,44.9574 44,44.5C 42.8867,46.3293 41.3867,47.1626 39.5,47C 41.229,45.2111 41.8957,43.0444 41.5,40.5C 40.4955,39.3172 39.6622,37.9839 39,36.5C 38.935,38.8833 38.1017,39.55 36.5,38.5C 35.7025,38.9569 35.3691,39.6236 35.5,40.5C 34.0992,40.9709 32.7658,41.6376 31.5,42.5C 33.7982,44.7395 33.1315,45.5728 29.5,45C 30.2489,43.2663 30.7489,41.433 31,39.5C 31.3333,39.8333 31.6667,40.1667 32,40.5C 32.9487,38.9069 34.1154,37.5736 35.5,36.5C 35.4346,36.9382 35.6012,37.2716 36,37.5C 37.7209,33.5341 39.3876,33.5341 41,37.5C 41.66,35.6763 42.8267,34.343 44.5,33.5 Z"/></g>
<g><path style="opacity:1" fill="#3da56d" d="M 51.5,39.5 C 51.5,40.8333 51.5,42.1667 51.5,43.5C 48.2027,43.6713 47.8694,43.0046 50.5,41.5C 48.876,39.7032 48.376,37.7032 49,35.5C 50.4813,36.4709 51.3146,37.8042 51.5,39.5 Z"/></g>
<g><path style="opacity:1" fill="#41a471" d="M 66.5,37.5 C 67.1174,37.6107 67.6174,37.944 68,38.5C 68.6667,40.5 68.6667,42.5 68,44.5C 66.7978,42.3225 66.2978,39.9892 66.5,37.5 Z"/></g>
<g><path style="opacity:0.991" fill="#189955" d="M 26.5,42.5 C 27.2312,42.9418 28.2312,43.1085 29.5,43C 26.1452,48.6405 27.4785,50.3071 33.5,48C 34.7717,46.6932 35.7717,45.1932 36.5,43.5C 37.754,45.2592 37.4206,46.7592 35.5,48C 38.2928,50.1088 40.9595,49.9421 43.5,47.5C 44.7678,48.4279 46.1011,48.5946 47.5,48C 46.1667,47.3333 46.1667,46.6667 47.5,46C 48.448,45.5172 49.448,45.3505 50.5,45.5C 50.9382,45.4346 51.2716,45.6012 51.5,46C 49.1192,47.2465 49.4525,47.5798 52.5,47C 53.6934,42.461 54.6934,42.6277 55.5,47.5C 56.1667,47.5 56.5,47.1667 56.5,46.5C 56.8333,46.5 57.1667,46.5 57.5,46.5C 58.4248,50.4453 59.5915,50.4453 61,46.5C 62.3024,47.0848 63.469,47.7515 64.5,48.5C 57.8333,52.1667 51.1667,55.8333 44.5,59.5C 40.8183,59.3347 37.1516,59.5014 33.5,60C 34.9047,61.2692 36.5714,61.7692 38.5,61.5C 31.2566,65.9542 23.5899,69.6209 15.5,72.5C 10.4811,66.4495 7.81439,59.4495 7.5,51.5C 13.7077,48.2294 20.0411,45.2294 26.5,42.5 Z"/></g>
<g><path style="opacity:1" fill="#8fc1af" d="M 56.5,46.5 C 56.5,47.1667 56.1667,47.5 55.5,47.5C 54.6934,42.6277 53.6934,42.461 52.5,47C 49.4525,47.5798 49.1192,47.2465 51.5,46C 51.2716,45.6012 50.9382,45.4346 50.5,45.5C 50.8333,44.8333 51.1667,44.1667 51.5,43.5C 51.5,42.1667 51.5,40.8333 51.5,39.5C 51.8333,39.5 52.1667,39.5 52.5,39.5C 53.7899,40.0577 54.6232,41.0577 55,42.5C 55.3333,40.1667 55.6667,37.8333 56,35.5C 56.4986,39.1516 56.6653,42.8183 56.5,46.5 Z"/></g>
<g><path style="opacity:0.99" fill="#11914e" d="M 85.5,34.5 C 91.9065,60.8522 82.2398,78.3522 56.5,87C 39.899,90.0153 26.2323,85.182 15.5,72.5C 23.5899,69.6209 31.2566,65.9542 38.5,61.5C 46.5285,61.2633 54.5285,61.5966 62.5,62.5C 63.5,62.1667 64.5,61.8333 65.5,61.5C 65.3333,61.1667 65.1667,60.8333 65,60.5C 63.3333,59.8333 61.6667,59.1667 60,58.5C 54.9283,59.4714 49.7616,59.8047 44.5,59.5C 51.1667,55.8333 57.8333,52.1667 64.5,48.5C 67.8081,50.2838 69.4747,49.2838 69.5,45.5C 74.5986,43.4516 79.5986,41.1183 84.5,38.5C 85.4287,37.3112 85.762,35.9778 85.5,34.5 Z"/></g>
<g><path style="opacity:1" fill="#a8ccc3" d="M 48.5,33.5 C 49.7079,34.2341 51.0413,34.5674 52.5,34.5C 52.5,35.5 52.5,36.5 52.5,37.5C 52.5,38.1667 52.5,38.8333 52.5,39.5C 52.1667,39.5 51.8333,39.5 51.5,39.5C 51.3146,37.8042 50.4813,36.4709 49,35.5C 48.376,37.7032 48.876,39.7032 50.5,41.5C 47.8694,43.0046 48.2027,43.6713 51.5,43.5C 51.1667,44.1667 50.8333,44.8333 50.5,45.5C 49.448,45.3505 48.448,45.5172 47.5,46C 46.1667,46.6667 46.1667,47.3333 47.5,48C 46.1011,48.5946 44.7678,48.4279 43.5,47.5C 40.9595,49.9421 38.2928,50.1088 35.5,48C 37.4206,46.7592 37.754,45.2592 36.5,43.5C 35.7717,45.1932 34.7717,46.6932 33.5,48C 27.4785,50.3071 26.1452,48.6405 29.5,43C 28.2312,43.1085 27.2312,42.9418 26.5,42.5C 29.2583,41.0335 28.925,40.3668 25.5,40.5C 25.373,37.755 26.5397,35.755 29,34.5C 30.6667,34.5 32.3333,34.5 34,34.5C 34.7172,35.0442 35.2172,35.7109 35.5,36.5C 34.1154,37.5736 32.9487,38.9069 32,40.5C 31.6667,40.1667 31.3333,39.8333 31,39.5C 30.7489,41.433 30.2489,43.2663 29.5,45C 33.1315,45.5728 33.7982,44.7395 31.5,42.5C 32.7658,41.6376 34.0992,40.9709 35.5,40.5C 36.209,41.404 37.209,41.7373 38.5,41.5C 38.281,42.675 38.6143,43.675 39.5,44.5C 40.731,43.3493 40.731,42.1827 39.5,41C 40.0944,40.5357 40.7611,40.369 41.5,40.5C 41.8957,43.0444 41.229,45.2111 39.5,47C 41.3867,47.1626 42.8867,46.3293 44,44.5C 44.414,44.9574 44.914,45.2907 45.5,45.5C 46.6704,44.3061 46.337,43.6395 44.5,43.5C 45.209,42.596 46.209,42.2627 47.5,42.5C 47.5674,41.0413 47.2341,39.7079 46.5,38.5C 47.3092,36.9724 47.9759,35.3057 48.5,33.5 Z"/></g>
<g><path style="opacity:1" fill="#3da56e" d="M 46.5,38.5 C 47.2341,39.7079 47.5674,41.0413 47.5,42.5C 46.209,42.2627 45.209,42.596 44.5,43.5C 43.7515,42.469 43.0848,41.3024 42.5,40C 43.9007,39.5899 45.234,39.0899 46.5,38.5 Z"/></g>
<g><path style="opacity:1" fill="#3da66e" d="M 41.5,40.5 C 40.7611,40.369 40.0944,40.5357 39.5,41C 40.731,42.1827 40.731,43.3493 39.5,44.5C 38.6143,43.675 38.281,42.675 38.5,41.5C 37.209,41.7373 36.209,41.404 35.5,40.5C 35.3691,39.6236 35.7025,38.9569 36.5,38.5C 38.1017,39.55 38.935,38.8833 39,36.5C 39.6622,37.9839 40.4955,39.3172 41.5,40.5 Z"/></g>
<g><path style="opacity:1" fill="#9cc4b9" d="M 55.5,47.5 C 54.9976,49.0847 53.9976,49.5847 52.5,49C 53.2438,47.9614 54.2438,47.4614 55.5,47.5 Z"/></g>
<g><path style="opacity:1" fill="#92bdb0" d="M 38.5,61.5 C 36.5714,61.7692 34.9047,61.2692 33.5,60C 37.1516,59.5014 40.8183,59.3347 44.5,59.5C 49.7616,59.8047 54.9283,59.4714 60,58.5C 61.6667,59.1667 63.3333,59.8333 65,60.5C 65.1667,60.8333 65.3333,61.1667 65.5,61.5C 64.5,61.8333 63.5,62.1667 62.5,62.5C 54.5285,61.5966 46.5285,61.2633 38.5,61.5 Z"/></g>
</svg>
