<svg width="20" height="20" viewBox="0 0 20 20" fill="none" xmlns="http://www.w3.org/2000/svg">
<path d="M9.99967 12.2923C11.2653 12.2923 12.2913 11.2663 12.2913 10.0007C12.2913 8.735 11.2653 7.70898 9.99967 7.70898C8.73402 7.70898 7.70801 8.735 7.70801 10.0007C7.70801 11.2663 8.73402 12.2923 9.99967 12.2923Z" stroke="#94A3B8" stroke-width="1.5" stroke-miterlimit="10" stroke-linecap="round" stroke-linejoin="round"/>
<path d="M2.35938 10.6735V9.32906C2.35938 8.53462 3.00868 7.87768 3.81076 7.87768C5.1934 7.87768 5.75868 6.8999 5.06354 5.70059C4.66632 5.01309 4.90312 4.11934 5.59826 3.72212L6.91979 2.96587C7.52326 2.60684 8.30243 2.82073 8.66146 3.4242L8.74548 3.56934C9.43298 4.76865 10.5635 4.76865 11.2587 3.56934L11.3427 3.4242C11.7017 2.82073 12.4809 2.60684 13.0844 2.96587L14.4059 3.72212C15.101 4.11934 15.3378 5.01309 14.9406 5.70059C14.2455 6.8999 14.8108 7.87768 16.1934 7.87768C16.9878 7.87768 17.6448 8.52698 17.6448 9.32906V10.6735C17.6448 11.468 16.9955 12.1249 16.1934 12.1249C14.8108 12.1249 14.2455 13.1027 14.9406 14.302C15.3378 14.9971 15.101 15.8832 14.4059 16.2805L13.0844 17.0367C12.4809 17.3957 11.7017 17.1818 11.3427 16.5784L11.2587 16.4332C10.5712 15.2339 9.44062 15.2339 8.74548 16.4332L8.66146 16.5784C8.30243 17.1818 7.52326 17.3957 6.91979 17.0367L5.59826 16.2805C4.90312 15.8832 4.66632 14.9895 5.06354 14.302C5.75868 13.1027 5.1934 12.1249 3.81076 12.1249C3.00868 12.1249 2.35938 11.468 2.35938 10.6735Z" stroke="#94A3B8" stroke-width="1.5" stroke-miterlimit="10" stroke-linecap="round" stroke-linejoin="round"/>
</svg>
