<?xml version="1.0" encoding="UTF-8"?>
<!DOCTYPE svg PUBLIC "-//W3C//DTD SVG 1.1//EN" "http://www.w3.org/Graphics/SVG/1.1/DTD/svg11.dtd">
<svg xmlns="http://www.w3.org/2000/svg" version="1.1" width="96px" height="96px" style="shape-rendering:geometricPrecision; text-rendering:geometricPrecision; image-rendering:optimizeQuality; fill-rule:evenodd; clip-rule:evenodd" xmlns:xlink="http://www.w3.org/1999/xlink">
<g><path style="opacity:1" fill="#f14955" d="M 41.5,7.5 C 45.5,7.5 49.5,7.5 53.5,7.5C 53.5,9.83333 53.5,12.1667 53.5,14.5C 49.5,18.1667 45.5,21.8333 41.5,25.5C 41.5,19.5 41.5,13.5 41.5,7.5 Z"/></g>
<g><path style="opacity:1" fill="#1b63a8" d="M 37.5,8.5 C 37.6665,17.8393 37.4998,27.1726 37,36.5C 30.3108,31.3024 23.8108,25.9691 17.5,20.5C 22.8986,14.4445 29.5652,10.4445 37.5,8.5 Z"/></g>
<g><path style="opacity:1" fill="#1d60a1" d="M 60.5,9.5 C 65.9174,10.9313 70.584,13.598 74.5,17.5C 73.5041,17.5858 72.6708,17.2524 72,16.5C 67.2979,21.3699 62.4646,26.0366 57.5,30.5C 57.5,23.5 57.5,16.5 57.5,9.5C 58.5,9.5 59.5,9.5 60.5,9.5 Z"/></g>
<g><path style="opacity:1" fill="#ef414e" d="M 53.5,14.5 C 53.5,19.8333 53.5,25.1667 53.5,30.5C 49.5,34.1667 45.5,37.8333 41.5,41.5C 41.5,36.1667 41.5,30.8333 41.5,25.5C 45.5,21.8333 49.5,18.1667 53.5,14.5 Z"/></g>
<g><path style="opacity:1" fill="#1c5e9d" d="M 74.5,17.5 C 76.1667,18.5 77.5,19.8333 78.5,21.5C 71.5948,25.4463 65.2615,30.113 59.5,35.5C 58.8826,35.6107 58.3826,35.944 58,36.5C 57.5045,34.5273 57.3379,32.5273 57.5,30.5C 62.4646,26.0366 67.2979,21.3699 72,16.5C 72.6708,17.2524 73.5041,17.5858 74.5,17.5 Z"/></g>
<g><path style="opacity:1" fill="#e83c48" d="M 80.5,24.5 C 81.4013,25.2905 82.0679,26.2905 82.5,27.5C 78.7514,30.888 74.7514,34.0546 70.5,37C 67.8333,37.6667 65.1667,37.6667 62.5,37C 68.3546,32.577 74.3546,28.4103 80.5,24.5 Z"/></g>
<g><path style="opacity:1" fill="#c5ced8" d="M 53.5,7.5 C 56.0673,7.72148 58.4006,8.38815 60.5,9.5C 59.5,9.5 58.5,9.5 57.5,9.5C 57.5,16.5 57.5,23.5 57.5,30.5C 57.3379,32.5273 57.5045,34.5273 58,36.5C 58.3826,35.944 58.8826,35.6107 59.5,35.5C 59.9382,35.4346 60.2716,35.6012 60.5,36C 58.6266,37.7038 56.9599,39.5372 55.5,41.5C 55.1667,41.5 54.8333,41.5 54.5,41.5C 53.5184,38.0381 53.185,34.3714 53.5,30.5C 53.5,25.1667 53.5,19.8333 53.5,14.5C 53.5,12.1667 53.5,9.83333 53.5,7.5 Z"/></g>
<g><path style="opacity:1" fill="#b7bdc7" d="M 78.5,21.5 C 79.4013,22.2905 80.0679,23.2905 80.5,24.5C 74.3546,28.4103 68.3546,32.577 62.5,37C 65.1667,37.6667 67.8333,37.6667 70.5,37C 74.7514,34.0546 78.7514,30.888 82.5,27.5C 83.4013,28.2905 84.0679,29.2905 84.5,30.5C 81.053,32.3967 77.7196,34.5633 74.5,37C 78.4862,37.4988 82.4862,37.6655 86.5,37.5C 87.2341,38.7079 87.5674,40.0413 87.5,41.5C 85.1667,41.5 82.8333,41.5 80.5,41.5C 75.8333,41.5 71.1667,41.5 66.5,41.5C 62.8333,41.5 59.1667,41.5 55.5,41.5C 56.9599,39.5372 58.6266,37.7038 60.5,36C 60.2716,35.6012 59.9382,35.4346 59.5,35.5C 65.2615,30.113 71.5948,25.4463 78.5,21.5 Z"/></g>
<g><path style="opacity:1" fill="#2b6bad" d="M 10.5,30.5 C 14.2022,32.0236 17.5355,34.1903 20.5,37C 16.5138,37.4988 12.5138,37.6655 8.5,37.5C 8.76697,35.0347 9.43363,32.7014 10.5,30.5 Z"/></g>
<g><path style="opacity:1" fill="#f1545e" d="M 14.5,24.5 C 20.8776,28.0312 26.8776,32.1979 32.5,37C 32.2716,37.3988 31.9382,37.5654 31.5,37.5C 29.1432,37.6633 26.8098,37.4966 24.5,37C 20.2486,34.0546 16.2486,30.888 12.5,27.5C 12.9321,26.2905 13.5987,25.2905 14.5,24.5 Z"/></g>
<g><path style="opacity:1" fill="#ed3b48" d="M 53.5,30.5 C 53.185,34.3714 53.5184,38.0381 54.5,41.5C 50.5,46.1667 46.1667,50.5 41.5,54.5C 39.7354,53.5386 37.7354,53.2053 35.5,53.5C 33.8333,53.5 32.1667,53.5 30.5,53.5C 34.1667,49.5 37.8333,45.5 41.5,41.5C 45.5,37.8333 49.5,34.1667 53.5,30.5 Z"/></g>
<g><path style="opacity:1" fill="#285f99" d="M 84.5,30.5 C 85.5664,32.7014 86.233,35.0347 86.5,37.5C 82.4862,37.6655 78.4862,37.4988 74.5,37C 77.7196,34.5633 81.053,32.3967 84.5,30.5 Z"/></g>
<g><path style="opacity:1" fill="#cdd6e0" d="M 41.5,7.5 C 41.5,13.5 41.5,19.5 41.5,25.5C 41.5,30.8333 41.5,36.1667 41.5,41.5C 37.1667,41.5 32.8333,41.5 28.5,41.5C 29.5,40.1667 30.5,38.8333 31.5,37.5C 31.9382,37.5654 32.2716,37.3988 32.5,37C 26.8776,32.1979 20.8776,28.0312 14.5,24.5C 15.0256,22.7697 16.0256,21.4363 17.5,20.5C 23.8108,25.9691 30.3108,31.3024 37,36.5C 37.4998,27.1726 37.6665,17.8393 37.5,8.5C 38.7079,7.76589 40.0413,7.43255 41.5,7.5 Z"/></g>
<g><path style="opacity:1" fill="#d3dae4" d="M 12.5,27.5 C 16.2486,30.888 20.2486,34.0546 24.5,37C 26.8098,37.4966 29.1432,37.6633 31.5,37.5C 30.5,38.8333 29.5,40.1667 28.5,41.5C 27.5,41.5 26.5,41.5 25.5,41.5C 19.5,41.5 13.5,41.5 7.5,41.5C 7.43255,40.0413 7.76589,38.7079 8.5,37.5C 12.5138,37.6655 16.5138,37.4988 20.5,37C 17.5355,34.1903 14.2022,32.0236 10.5,30.5C 10.9321,29.2905 11.5987,28.2905 12.5,27.5 Z"/></g>
<g><path style="opacity:1" fill="#f14954" d="M 7.5,41.5 C 13.5,41.5 19.5,41.5 25.5,41.5C 21.8333,45.5 18.1667,49.5 14.5,53.5C 12.1667,53.5 9.83333,53.5 7.5,53.5C 7.5,49.5 7.5,45.5 7.5,41.5 Z"/></g>
<g><path style="opacity:1" fill="#ef414e" d="M 25.5,41.5 C 26.5,41.5 27.5,41.5 28.5,41.5C 32.8333,41.5 37.1667,41.5 41.5,41.5C 37.8333,45.5 34.1667,49.5 30.5,53.5C 25.1667,53.5 19.8333,53.5 14.5,53.5C 18.1667,49.5 21.8333,45.5 25.5,41.5 Z"/></g>
<g><path style="opacity:1" fill="#ea3341" d="M 54.5,41.5 C 54.8333,41.5 55.1667,41.5 55.5,41.5C 59.1667,41.5 62.8333,41.5 66.5,41.5C 62.8333,45.5 59.1667,49.5 55.5,53.5C 54.1667,53.5 53.5,54.1667 53.5,55.5C 49.5,59.1667 45.5,62.8333 41.5,66.5C 41.5,62.5 41.5,58.5 41.5,54.5C 46.1667,50.5 50.5,46.1667 54.5,41.5 Z"/></g>
<g><path style="opacity:1" fill="#e82a39" d="M 66.5,41.5 C 71.1667,41.5 75.8333,41.5 80.5,41.5C 76.8333,45.5 73.1667,49.5 69.5,53.5C 64.8333,53.5 60.1667,53.5 55.5,53.5C 59.1667,49.5 62.8333,45.5 66.5,41.5 Z"/></g>
<g><path style="opacity:1" fill="#e52635" d="M 80.5,41.5 C 82.8333,41.5 85.1667,41.5 87.5,41.5C 87.5,45.5 87.5,49.5 87.5,53.5C 81.5,53.5 75.5,53.5 69.5,53.5C 73.1667,49.5 76.8333,45.5 80.5,41.5 Z"/></g>
<g><path style="opacity:1" fill="#c6cdd7" d="M 7.5,53.5 C 9.83333,53.5 12.1667,53.5 14.5,53.5C 19.8333,53.5 25.1667,53.5 30.5,53.5C 32.1667,53.5 33.8333,53.5 35.5,53.5C 34.5,54.8333 33.5,56.1667 32.5,57.5C 29.8127,57.3359 27.146,57.5026 24.5,58C 20.2486,60.9454 16.2486,64.112 12.5,67.5C 11.5987,66.7095 10.9321,65.7095 10.5,64.5C 14.2022,62.9764 17.5355,60.8097 20.5,58C 16.8484,57.5014 13.1817,57.3347 9.5,57.5C 9.5,58.5 9.5,59.5 9.5,60.5C 8.38815,58.4006 7.72148,56.0673 7.5,53.5 Z"/></g>
<g><path style="opacity:1" fill="#b9c1cb" d="M 35.5,53.5 C 37.7354,53.2053 39.7354,53.5386 41.5,54.5C 41.5,58.5 41.5,62.5 41.5,66.5C 41.5,71.1667 41.5,75.8333 41.5,80.5C 41.5,82.8333 41.5,85.1667 41.5,87.5C 40.0413,87.5674 38.7079,87.2341 37.5,86.5C 37.6665,77.1607 37.4998,67.8274 37,58.5C 30.3108,63.6976 23.8108,69.0309 17.5,74.5C 16.0256,73.5637 15.0256,72.2303 14.5,70.5C 21.0641,66.9341 27.0641,62.6007 32.5,57.5C 33.5,56.1667 34.5,54.8333 35.5,53.5 Z"/></g>
<g><path style="opacity:1" fill="#2966a5" d="M 10.5,64.5 C 9.76589,63.2921 9.43255,61.9587 9.5,60.5C 9.5,59.5 9.5,58.5 9.5,57.5C 13.1817,57.3347 16.8484,57.5014 20.5,58C 17.5355,60.8097 14.2022,62.9764 10.5,64.5 Z"/></g>
<g><path style="opacity:1" fill="#ec4752" d="M 32.5,57.5 C 27.0641,62.6007 21.0641,66.9341 14.5,70.5C 13.5987,69.7095 12.9321,68.7095 12.5,67.5C 16.2486,64.112 20.2486,60.9454 24.5,58C 27.146,57.5026 29.8127,57.3359 32.5,57.5 Z"/></g>
<g><path style="opacity:1" fill="#265a92" d="M 85.5,60.5 C 85.5674,61.9587 85.2341,63.2921 84.5,64.5C 81.053,62.6033 77.7196,60.4367 74.5,58C 78.1516,57.5014 81.8183,57.3347 85.5,57.5C 85.5,58.5 85.5,59.5 85.5,60.5 Z"/></g>
<g><path style="opacity:1" fill="#1c5c9a" d="M 37.5,86.5 C 29.5652,84.5555 22.8986,80.5555 17.5,74.5C 23.8108,69.0309 30.3108,63.6976 37,58.5C 37.4998,67.8274 37.6665,77.1607 37.5,86.5 Z"/></g>
<g><path style="opacity:1" fill="#185692" d="M 70.5,68.5 C 66.1667,72.5 61.8333,76.5 57.5,80.5C 57.3337,73.1591 57.5003,65.8258 58,58.5C 62.3276,61.7325 66.4943,65.0658 70.5,68.5 Z"/></g>
<g><path style="opacity:1" fill="#e12e39" d="M 82.5,67.5 C 82.0679,68.7095 81.4013,69.7095 80.5,70.5C 74.3835,66.5995 68.3835,62.4328 62.5,58C 65.1667,57.3333 67.8333,57.3333 70.5,58C 74.7514,60.9454 78.7514,64.112 82.5,67.5 Z"/></g>
<g><path style="opacity:1" fill="#e82a39" d="M 53.5,55.5 C 53.5,60.1667 53.5,64.8333 53.5,69.5C 49.5,73.1667 45.5,76.8333 41.5,80.5C 41.5,75.8333 41.5,71.1667 41.5,66.5C 45.5,62.8333 49.5,59.1667 53.5,55.5 Z"/></g>
<g><path style="opacity:1" fill="#aab2bb" d="M 55.5,53.5 C 60.1667,53.5 64.8333,53.5 69.5,53.5C 75.5,53.5 81.5,53.5 87.5,53.5C 87.2785,56.0673 86.6118,58.4006 85.5,60.5C 85.5,59.5 85.5,58.5 85.5,57.5C 81.8183,57.3347 78.1516,57.5014 74.5,58C 77.7196,60.4367 81.053,62.6033 84.5,64.5C 84.0679,65.7095 83.4013,66.7095 82.5,67.5C 78.7514,64.112 74.7514,60.9454 70.5,58C 67.8333,57.3333 65.1667,57.3333 62.5,58C 68.3835,62.4328 74.3835,66.5995 80.5,70.5C 79.9744,72.2303 78.9744,73.5637 77.5,74.5C 75.7656,71.7997 73.4323,69.7997 70.5,68.5C 66.4943,65.0658 62.3276,61.7325 58,58.5C 57.5003,65.8258 57.3337,73.1591 57.5,80.5C 57.5,82.5 57.5,84.5 57.5,86.5C 56.2921,87.2341 54.9587,87.5674 53.5,87.5C 53.5,81.5 53.5,75.5 53.5,69.5C 53.5,64.8333 53.5,60.1667 53.5,55.5C 53.5,54.1667 54.1667,53.5 55.5,53.5 Z"/></g>
<g><path style="opacity:1" fill="#235890" d="M 70.5,68.5 C 73.4323,69.7997 75.7656,71.7997 77.5,74.5C 72.1014,80.5555 65.4348,84.5555 57.5,86.5C 57.5,84.5 57.5,82.5 57.5,80.5C 61.8333,76.5 66.1667,72.5 70.5,68.5 Z"/></g>
<g><path style="opacity:1" fill="#e52635" d="M 53.5,69.5 C 53.5,75.5 53.5,81.5 53.5,87.5C 49.5,87.5 45.5,87.5 41.5,87.5C 41.5,85.1667 41.5,82.8333 41.5,80.5C 45.5,76.8333 49.5,73.1667 53.5,69.5 Z"/></g>
</svg>
