<svg width="700" height="700" viewBox="0 0 700 700" fill="none" xmlns="http://www.w3.org/2000/svg">
<path d="M119.63 585.2C243.894 648.732 445.368 648.732 569.618 585.2C693.868 521.668 693.882 418.6 569.618 355.138C445.354 291.676 243.894 291.606 119.63 355.138C-4.63375 418.67 -4.61975 521.682 119.63 585.2Z" fill="#EBFEFA"/>
<path d="M526.022 483.714C532.84 487.648 546.224 486.29 555.912 480.69L611.8 448.224C621.502 442.624 623.826 434.896 617.008 430.948C610.19 427 596.82 428.4 587.118 434L531.258 466.494C521.556 472.052 519.218 479.78 526.022 483.714Z" fill="#E4EAF1"/>
<path d="M189.434 513.66L132.566 480.83L189.434 448V513.66Z" fill="#E4EAF1"/>
<path d="M350.168 533.302L258.51 480.354L350.182 427.504L350.168 533.302Z" fill="#E4EAF1"/>
<path d="M112.504 436.898C112.672 423.598 103.376 395.92 89.782 378.49C76.188 361.06 54.6 348.166 39.2 353.248C24.78 357.994 26.11 376.838 43.4 389.536C60.69 402.234 86.66 418.222 94.066 439.936L109.816 466.536L112.504 436.898Z" fill="#0ACBA7"/>
<path opacity="0.1" d="M112.504 436.898C112.672 423.598 103.376 395.92 89.782 378.49C76.188 361.06 54.6 348.166 39.2 353.248C24.78 357.994 26.11 376.838 43.4 389.536C60.69 402.234 86.66 418.222 94.066 439.936L109.816 466.536L112.504 436.898Z" fill="#101218"/>
<path d="M113.274 455.112C113.062 455.093 112.861 455.005 112.704 454.861C112.547 454.716 112.442 454.524 112.406 454.314C104.006 408.8 67.746 371.448 45.864 363.034C45.7318 362.998 45.6086 362.935 45.5024 362.848C45.3961 362.761 45.3093 362.653 45.2473 362.531C45.1854 362.409 45.1498 362.275 45.1429 362.138C45.1359 362.001 45.1577 361.864 45.2069 361.737C45.2561 361.609 45.3316 361.492 45.4285 361.396C45.5254 361.299 45.6415 361.223 45.7694 361.174C45.8973 361.125 46.0341 361.103 46.1709 361.11C46.3078 361.117 46.4417 361.152 46.564 361.214C68.866 369.796 105.826 407.764 114.31 453.964C114.334 454.089 114.334 454.218 114.308 454.342C114.283 454.467 114.233 454.586 114.161 454.691C114.089 454.797 113.998 454.887 113.891 454.957C113.785 455.026 113.665 455.074 113.54 455.098L113.274 455.112Z" fill="white"/>
<path d="M106.148 484.092C104.104 476.588 95.1157 464.142 80.4717 453.768C64.2597 442.302 43.6517 436.87 38.9897 428.036C33.3897 417.424 42.3917 407.568 59.1497 409.836C75.9077 412.104 105.14 435.4 109.452 469.924L106.148 484.092Z" fill="#0ACBA7"/>
<path d="M109.494 476.28C109.307 476.264 109.128 476.195 108.98 476.081C108.831 475.967 108.718 475.812 108.654 475.636C95.2 436.562 65.688 422.548 51.968 420.602C51.7137 420.567 51.4837 420.432 51.3288 420.227C51.1739 420.022 51.1067 419.764 51.142 419.51C51.1773 419.256 51.3121 419.026 51.5169 418.871C51.7217 418.716 51.9797 418.649 52.234 418.684C67.41 420.84 96.768 435.12 110.502 474.992C110.583 475.237 110.566 475.504 110.453 475.737C110.341 475.97 110.143 476.149 109.9 476.238C109.769 476.279 109.631 476.293 109.494 476.28Z" fill="white"/>
<path d="M608.902 399C608.902 399 610.764 371 627.284 350.14C643.804 329.28 642.796 320.74 631.4 316.54C620.004 312.34 593.6 337.47 599.424 371C605.248 404.53 608.902 399 608.902 399Z" fill="#0ACBA7"/>
<path opacity="0.1" d="M608.902 399C608.902 399 610.764 371 627.284 350.14C643.804 329.28 642.796 320.74 631.4 316.54C620.004 312.34 593.6 337.47 599.424 371C605.248 404.53 608.902 399 608.902 399Z" fill="#101218"/>
<path d="M603.848 383.012C603.683 383.013 603.524 382.951 603.402 382.84C603.28 382.728 603.204 382.575 603.19 382.41C601.272 351.526 623.07 326.186 631.19 320.446C631.259 320.396 631.336 320.36 631.419 320.34C631.502 320.321 631.587 320.318 631.671 320.332C631.755 320.347 631.835 320.378 631.906 320.424C631.977 320.47 632.039 320.53 632.086 320.6C632.185 320.742 632.224 320.917 632.196 321.087C632.167 321.257 632.072 321.409 631.932 321.51C623.924 327.11 602.532 351.988 604.436 382.326C604.444 382.496 604.386 382.663 604.273 382.791C604.161 382.919 604.004 382.998 603.834 383.012H603.848Z" fill="white"/>
<path d="M604.408 422.184C611.848 424.615 619.469 426.45 627.2 427.672C639.996 429.688 645.652 423.57 645.652 423.57C645.652 423.57 640.612 411.572 633.346 408.17C641.208 409.936 648.715 413.018 655.55 417.284C655.55 417.284 663.362 417.41 666.47 405.482C666.47 405.482 661.85 398.3 646.31 394.422C646.31 394.422 655.76 392.042 669.382 395.514C670.404 395.92 674.758 380.506 676.074 373.394C677.39 366.282 674.534 366.394 668.99 364.868C663.446 363.342 645.064 359.268 641.592 362.306C638.12 365.344 636.356 375.788 636.356 375.788C634.981 371.513 634.802 366.942 635.838 362.572C635.838 362.572 630.854 360.626 623.098 362.88C616.77 364.714 616.462 369.026 616.742 373.898C617.117 378.13 618.059 382.293 619.542 386.274C619.542 386.274 614.6 379.946 614.446 366.212C614.446 366.212 601.482 372.652 599.27 385.532C597.982 392.518 596.274 413 604.408 422.184Z" fill="#0ACBA7"/>
<path d="M606.844 419.692C606.98 419.692 607.114 419.653 607.23 419.582C607.346 419.51 607.44 419.408 607.502 419.286C617.82 397.824 656.222 372.89 669.97 370.216C670.063 370.199 670.152 370.164 670.232 370.113C670.311 370.061 670.379 369.995 670.433 369.916C670.486 369.838 670.524 369.75 670.543 369.658C670.562 369.565 670.562 369.469 670.544 369.376C670.503 369.189 670.392 369.024 670.233 368.917C670.073 368.81 669.879 368.769 669.69 368.802C655.69 371.532 616.686 396.802 606.2 418.656C606.118 418.829 606.107 419.027 606.17 419.208C606.233 419.389 606.364 419.538 606.536 419.622C606.633 419.665 606.738 419.689 606.844 419.692Z" fill="white"/>
<path d="M107.492 494.004C105.91 494.004 104.958 492.702 104.958 490.504V255.01L393.4 88.5078V323.05C393.3 325.008 392.742 326.915 391.769 328.618C390.796 330.32 389.437 331.77 387.8 332.85L109.788 493.29C109.098 493.724 108.307 493.971 107.492 494.004Z" fill="#F8FAFC"/>
<path d="M392.532 89.9221V323.05C392.415 324.866 391.88 326.631 390.969 328.207C390.059 329.783 388.797 331.128 387.282 332.136L109.382 492.576C108.816 492.942 108.165 493.154 107.492 493.192C105.938 493.192 105.77 491.302 105.77 490.504V255.486L392.532 89.9221ZM394.17 87.1221L104.132 254.534V490.504C104.132 493.304 105.532 494.83 107.492 494.83C108.449 494.795 109.381 494.51 110.194 494.004L388.108 333.55C389.872 332.399 391.34 330.848 392.393 329.024C393.446 327.2 394.055 325.153 394.17 323.05V87.0801V87.1221Z" fill="#E0E0E0"/>
<path d="M104.146 254.534V293.944L394.169 126.49V87.0801L104.146 254.534Z" fill="#0ACBA7"/>
<path d="M126.882 256.634V262.234C126.882 263.382 127.708 263.858 128.702 263.284L217.868 211.806V202.006L128.702 253.484C128.175 253.832 127.737 254.298 127.421 254.844C127.105 255.391 126.92 256.004 126.882 256.634Z" fill="#F8FAFC"/>
<path d="M227.43 196.49C228.438 195.902 229.25 196.378 229.25 197.54V203.14C229.213 203.77 229.03 204.384 228.714 204.931C228.398 205.478 227.958 205.943 227.43 206.29L217.868 211.806V202.006L227.43 196.49Z" fill="#455A64"/>
<path d="M104.132 241.836C104.247 239.733 104.855 237.686 105.909 235.862C106.962 234.038 108.43 232.487 110.194 231.336L388.108 70.8818C391.454 68.9498 394.17 70.5178 394.17 74.3818V87.0798L104.132 254.534V241.836Z" fill="#455A64"/>
<path d="M361.928 92.5955C361.108 93.1372 360.428 93.8644 359.941 94.7181C359.455 95.5718 359.176 96.5281 359.128 97.5095C359.128 99.3295 360.402 100.057 361.928 99.1615C362.748 98.6167 363.429 97.8869 363.915 97.031C364.401 96.175 364.68 95.2168 364.728 94.2335C364.784 92.3995 363.51 91.6855 361.928 92.5955Z" fill="#0ACBA7"/>
<path d="M371 87.3879C370.18 87.9296 369.499 88.6568 369.013 89.5105C368.526 90.3642 368.248 91.3205 368.2 92.3019C368.2 94.1219 369.474 94.8499 371 93.9539C371.818 93.4075 372.498 92.6773 372.984 91.8217C373.47 90.9661 373.749 90.0087 373.8 89.0259C373.8 87.2059 372.512 86.4779 371 87.3879Z" fill="#0ACBA7"/>
<path d="M379.946 82.1799C379.126 82.7216 378.446 83.4488 377.959 84.3025C377.473 85.1562 377.194 86.1125 377.146 87.0939C377.146 88.9139 378.42 89.6419 379.946 88.7459C380.764 88.1995 381.444 87.4693 381.93 86.6137C382.416 85.7581 382.696 84.8007 382.746 83.8179C382.788 81.9979 381.514 81.2699 379.946 82.1799Z" fill="#0ACBA7"/>
<g opacity="0.1">
<path opacity="0.1" d="M303.17 152.138C301.362 153.321 299.858 154.914 298.78 156.787C297.703 158.66 297.082 160.76 296.968 162.918C296.968 166.88 299.768 168.518 303.17 166.502C304.98 165.324 306.487 163.734 307.567 161.864C308.647 159.993 309.27 157.893 309.386 155.736C309.4 151.774 306.6 150.164 303.17 152.138Z" fill="#101218"/>
<path opacity="0.1" d="M274.75 168.56C272.939 169.738 271.433 171.327 270.352 173.198C269.272 175.069 268.649 177.168 268.534 179.326C268.534 183.288 271.334 184.926 274.75 182.924C276.558 181.741 278.062 180.148 279.139 178.275C280.217 176.402 280.838 174.301 280.952 172.144C280.952 168.182 278.18 166.6 274.75 168.56Z" fill="#101218"/>
<path opacity="0.1" d="M331.604 135.8C329.796 136.98 328.292 138.57 327.214 140.441C326.137 142.311 325.516 144.41 325.402 146.566C325.402 150.528 328.202 152.166 331.604 150.15C333.415 148.972 334.922 147.383 336.003 145.512C337.083 143.641 337.706 141.541 337.82 139.384C337.82 135.352 335.048 133.742 331.604 135.8Z" fill="#101218"/>
<path opacity="0.1" d="M360.051 119.28C358.241 120.458 356.734 122.048 355.654 123.918C354.574 125.789 353.951 127.889 353.835 130.046C353.835 134.008 356.635 135.646 360.051 133.63C361.862 132.451 363.369 130.862 364.449 128.991C365.529 127.121 366.152 125.021 366.267 122.864C366.267 118.902 363.481 117.292 360.051 119.28Z" fill="#101218"/>
</g>
<path d="M133 297.01L200.494 258.034C203.84 256.102 206.555 257.67 206.555 261.534V326.34C206.441 328.443 205.832 330.49 204.779 332.314C203.726 334.138 202.257 335.689 200.494 336.84L133 375.802C129.654 377.734 126.938 376.166 126.938 372.302V307.51C127.052 305.407 127.661 303.36 128.714 301.536C129.767 299.712 131.236 298.161 133 297.01Z" fill="#E0E0E0"/>
<path d="M229.6 241.191L371 159.599C374.346 157.653 377.062 159.221 377.062 163.099V227.891C376.947 229.995 376.338 232.041 375.285 233.866C374.232 235.69 372.764 237.24 371 238.391L229.6 319.984C226.254 321.915 223.538 320.348 223.538 316.484V251.691C223.653 249.588 224.261 247.542 225.314 245.717C226.368 243.893 227.836 242.343 229.6 241.191Z" fill="#E0E0E0"/>
<path d="M133 395.499L240.296 333.549C243.656 331.617 246.371 332.989 246.371 336.615C246.222 338.651 245.595 340.623 244.542 342.372C243.489 344.121 242.039 345.597 240.309 346.681L133 408.631C129.654 410.563 126.938 409.191 126.938 405.565C127.087 403.53 127.714 401.557 128.767 399.809C129.82 398.06 131.27 396.584 133 395.499Z" fill="#E0E0E0"/>
<path d="M133 418.488L240.296 356.538C243.656 354.606 246.371 355.978 246.371 359.604C246.222 361.64 245.595 363.612 244.542 365.36C243.489 367.109 242.039 368.585 240.309 369.67L133 431.62C129.654 433.552 126.938 432.18 126.938 428.554C127.087 426.518 127.714 424.546 128.767 422.797C129.82 421.048 131.27 419.572 133 418.488Z" fill="#E0E0E0"/>
<path d="M133 441.462L240.296 379.512C243.656 377.58 246.371 378.952 246.371 382.578C246.222 384.614 245.595 386.586 244.542 388.335C243.489 390.084 242.039 391.56 240.309 392.644L133 454.594C129.654 456.526 126.938 455.154 126.938 451.528C127.087 449.492 127.714 447.52 128.767 445.772C129.82 444.023 131.27 442.547 133 441.462Z" fill="#E0E0E0"/>
<path d="M183.75 363.538C183.822 362.276 184.188 361.049 184.821 359.955C185.453 358.861 186.333 357.93 187.39 357.238L373.464 249.816C374.592 249.243 375.839 248.944 377.104 248.944C378.369 248.944 379.616 249.243 380.744 249.816L384.846 252.182C385.903 252.873 386.782 253.804 387.412 254.899C388.042 255.993 388.405 257.221 388.472 258.482V401.114C388.403 402.375 388.039 403.602 387.409 404.696C386.779 405.79 385.901 406.721 384.846 407.414L198.8 514.836C197.672 515.409 196.425 515.708 195.16 515.708C193.895 515.708 192.648 515.409 191.52 514.836L187.418 512.47C186.36 511.779 185.479 510.848 184.847 509.754C184.215 508.66 183.849 507.432 183.778 506.17L183.75 363.538Z" fill="#0ACBA7"/>
<path opacity="0.4" d="M184.8 359.954L195.132 365.918L387.394 254.898C386.779 253.79 385.899 252.852 384.832 252.168L380.8 249.816C379.677 249.243 378.434 248.944 377.174 248.944C375.913 248.944 374.671 249.243 373.548 249.816L187.39 357.238C186.311 357.91 185.42 358.844 184.8 359.954Z" fill="white"/>
<path opacity="0.1" d="M183.75 363.538V506.17C183.821 507.432 184.187 508.66 184.819 509.754C185.451 510.848 186.332 511.779 187.39 512.47L191.492 514.836C191.807 515.019 192.14 515.169 192.486 515.284C192.973 515.448 193.475 515.565 193.984 515.634C194.94 515.751 195.91 515.714 196.854 515.522C197.096 515.478 197.334 515.417 197.568 515.34L198.002 515.172C197.726 515.291 197.428 515.353 197.127 515.353C196.826 515.353 196.528 515.291 196.252 515.172C195.865 514.914 195.556 514.554 195.361 514.131C195.166 513.709 195.091 513.24 195.146 512.778V370.118C195.109 369.47 195.27 368.825 195.608 368.27C195.945 367.715 196.443 367.276 197.036 367.01L195.146 365.918L184.8 359.954C184.151 361.04 183.79 362.274 183.75 363.538Z" fill="#101218"/>
<path opacity="0.2" d="M195.146 365.918L281.316 398.118C284.296 399.228 287.565 399.291 290.585 398.297C293.606 397.302 296.197 395.308 297.934 392.644L311.766 371.448L388.094 254.506L314.524 372.246L388.472 401.184C388.411 402.47 388.02 403.718 387.338 404.81L314.328 372.61L298.2 398.3C296.413 401.154 293.658 403.269 290.438 404.256C287.219 405.244 283.752 405.038 280.672 403.676L269.22 398.622L196.252 515.2C195.864 514.942 195.556 514.582 195.361 514.159C195.166 513.737 195.091 513.268 195.146 512.806V510.44L268.898 398.538L195.146 365.918Z" fill="#101218"/>
<path d="M348.67 202.174V529.634C348.67 533.498 351.386 535.066 354.732 533.134L501.844 448.196C503.608 447.045 505.076 445.495 506.129 443.67C507.182 441.846 507.791 439.8 507.906 437.696V110.236C507.906 106.372 505.19 104.804 501.844 106.736L354.732 191.674C352.966 192.824 351.497 194.374 350.444 196.199C349.39 198.023 348.783 200.071 348.67 202.174Z" fill="#F8FAFC" stroke="#E0E0E0" stroke-width="1.16981" stroke-miterlimit="10"/>
<path d="M357.196 208.264C357.243 207.746 357.411 207.245 357.685 206.803C357.96 206.361 358.334 205.989 358.778 205.716L375.578 196.042C376.446 195.538 377.146 195.874 377.146 196.784C377.101 197.302 376.936 197.802 376.664 198.244C376.392 198.686 376.02 199.059 375.578 199.332L358.778 209.006C357.91 209.51 357.196 209.174 357.196 208.264Z" fill="#455A64"/>
<path d="M357.196 214.788C357.242 214.269 357.409 213.768 357.684 213.326C357.959 212.883 358.333 212.512 358.778 212.24L375.578 202.566C376.446 202.062 377.146 202.398 377.146 203.294C377.103 203.814 376.939 204.317 376.667 204.762C376.395 205.207 376.021 205.582 375.578 205.856L358.778 215.516C357.91 216.02 357.196 215.698 357.196 214.788Z" fill="#455A64"/>
<path d="M357.196 221.312C357.242 220.794 357.409 220.293 357.684 219.85C357.959 219.408 358.333 219.036 358.778 218.764L375.578 209.09C376.446 208.586 377.146 208.908 377.146 209.818C377.103 210.337 376.939 210.837 376.667 211.28C376.394 211.723 376.021 212.095 375.578 212.366L358.778 222.04C357.91 222.6 357.196 222.222 357.196 221.312Z" fill="#455A64"/>
<path d="M496.538 137.34V134.722C496.539 134.69 496.532 134.659 496.517 134.631C496.502 134.602 496.48 134.579 496.453 134.562C496.426 134.545 496.395 134.535 496.364 134.534C496.332 134.532 496.3 134.539 496.272 134.554L494.256 135.464C494.224 135.48 494.189 135.488 494.154 135.489C494.118 135.489 494.083 135.482 494.051 135.467C494.019 135.452 493.99 135.431 493.968 135.404C493.945 135.376 493.929 135.344 493.92 135.31C493.813 134.961 493.663 134.627 493.472 134.316C493.434 134.24 493.414 134.156 493.414 134.071C493.414 133.986 493.434 133.902 493.472 133.826L494.872 131.11C494.906 131.041 494.912 130.962 494.889 130.888C494.865 130.815 494.814 130.754 494.746 130.718L493.346 129.878C493.28 129.845 493.204 129.836 493.132 129.854C493.059 129.872 492.996 129.915 492.954 129.976L491.274 132.496C491.224 132.564 491.158 132.618 491.083 132.655C491.007 132.691 490.924 132.709 490.84 132.706C490.473 132.703 490.107 132.741 489.748 132.818C489.714 132.829 489.677 132.832 489.642 132.826C489.607 132.821 489.573 132.808 489.543 132.788C489.514 132.767 489.489 132.741 489.471 132.71C489.453 132.679 489.442 132.644 489.44 132.608L489.216 130.41C489.216 130.256 489.076 130.186 488.95 130.27L486.682 131.572C486.61 131.619 486.549 131.681 486.503 131.753C486.458 131.826 486.428 131.907 486.416 131.992L486.192 134.512C486.162 134.691 486.079 134.857 485.954 134.988C485.499 135.423 485.078 135.891 484.694 136.388C484.64 136.451 484.569 136.496 484.489 136.519C484.409 136.541 484.325 136.54 484.246 136.514L482.846 136.01C482.771 135.986 482.69 135.989 482.616 136.017C482.542 136.045 482.48 136.097 482.44 136.164L480.774 139.048C480.74 139.117 480.728 139.194 480.741 139.269C480.754 139.345 480.79 139.414 480.844 139.468L482.02 140.476C482.077 140.534 482.118 140.606 482.138 140.685C482.158 140.764 482.156 140.846 482.132 140.924C481.916 141.5 481.738 142.089 481.6 142.688C481.553 142.858 481.455 143.009 481.32 143.122L479.248 144.522C479.179 144.576 479.122 144.643 479.081 144.721C479.04 144.798 479.015 144.883 479.01 144.97V147.574C479.003 147.608 479.006 147.642 479.02 147.674C479.033 147.705 479.056 147.732 479.085 147.75C479.114 147.769 479.147 147.778 479.182 147.776C479.216 147.775 479.249 147.763 479.276 147.742L481.292 146.832C481.325 146.819 481.36 146.813 481.396 146.815C481.431 146.816 481.466 146.825 481.497 146.841C481.529 146.857 481.557 146.879 481.58 146.907C481.602 146.934 481.619 146.966 481.628 147C481.734 147.349 481.885 147.683 482.076 147.994C482.114 148.07 482.134 148.154 482.134 148.239C482.134 148.324 482.114 148.408 482.076 148.484L480.676 151.186C480.644 151.258 480.639 151.338 480.662 151.413C480.686 151.488 480.735 151.551 480.802 151.592L482.202 152.432C482.268 152.466 482.344 152.474 482.416 152.456C482.488 152.438 482.551 152.395 482.594 152.334L484.274 149.814C484.324 149.747 484.389 149.692 484.465 149.656C484.541 149.619 484.624 149.601 484.708 149.604C485.075 149.607 485.441 149.57 485.8 149.492C485.834 149.482 485.87 149.479 485.906 149.484C485.941 149.489 485.975 149.503 486.005 149.523C486.034 149.543 486.059 149.57 486.077 149.601C486.095 149.632 486.105 149.666 486.108 149.702L486.332 151.9C486.332 152.054 486.458 152.124 486.598 152.04L488.866 150.738C488.937 150.688 488.998 150.623 489.044 150.549C489.089 150.474 489.119 150.391 489.132 150.304L489.356 147.784C489.383 147.609 489.467 147.447 489.594 147.322C490.048 146.888 490.469 146.42 490.854 145.922C490.908 145.859 490.979 145.814 491.059 145.791C491.139 145.769 491.223 145.771 491.302 145.796L492.702 146.3C492.777 146.324 492.858 146.322 492.932 146.294C493.005 146.266 493.067 146.214 493.108 146.146L494.774 143.262C494.809 143.191 494.82 143.109 494.805 143.031C494.79 142.953 494.75 142.881 494.69 142.828L493.528 141.834C493.47 141.777 493.429 141.705 493.41 141.626C493.39 141.547 493.392 141.464 493.416 141.386C493.632 140.81 493.809 140.221 493.948 139.622C493.987 139.449 494.086 139.295 494.228 139.188L496.3 137.788C496.368 137.734 496.424 137.666 496.465 137.589C496.506 137.512 496.531 137.427 496.538 137.34ZM487.676 145.6C485.562 146.832 483.854 145.838 483.854 143.402C483.919 142.072 484.3 140.777 484.965 139.623C485.629 138.47 486.558 137.49 487.676 136.766C489.79 135.548 491.498 136.542 491.498 138.978C491.43 140.306 491.048 141.598 490.384 142.749C489.72 143.9 488.791 144.878 487.676 145.6Z" fill="#37474F"/>
<path d="M428.288 201.881C445.48 191.955 459.41 200.005 459.41 219.857C459.41 239.709 445.48 263.831 428.288 273.757C411.096 283.683 397.166 275.633 397.166 255.795C397.166 235.957 411.096 211.807 428.288 201.881Z" fill="#455A64"/>
<path d="M428.078 217.505C433.678 214.285 438.172 216.889 438.172 223.329C437.98 226.829 436.966 230.235 435.212 233.271C433.459 236.306 431.014 238.886 428.078 240.801C422.478 244.021 417.97 241.417 417.97 234.977C418.162 231.475 419.178 228.067 420.934 225.032C422.69 221.996 425.138 219.417 428.078 217.505Z" fill="#0ACBA7"/>
<path d="M448 251.833C448 241.263 440.566 236.965 431.41 242.257L425.6 245.561C416.444 250.853 409.01 263.761 409.01 274.303V277.201C410.738 277.753 412.543 278.032 414.358 278.027C419.269 277.86 424.052 276.412 428.232 273.827C436.228 268.915 442.991 262.233 448 254.297V251.833Z" fill="#0ACBA7"/>
<path d="M400.204 303.283L456.4 270.845C458.066 269.879 459.424 270.565 459.424 272.385C459.348 273.401 459.035 274.385 458.51 275.258C457.985 276.131 457.262 276.868 456.4 277.411L400.218 309.849C398.538 310.829 397.18 310.129 397.18 308.323C397.252 307.304 397.564 306.317 398.089 305.441C398.614 304.566 399.339 303.826 400.204 303.283Z" fill="#0ACBA7"/>
<path d="M394.17 326.494L462.406 287C464.086 286.034 465.444 286.72 465.444 288.54C465.368 289.558 465.053 290.543 464.525 291.416C463.997 292.289 463.271 293.026 462.406 293.566L394.17 333.06C392.49 334.026 391.132 333.34 391.132 331.52C391.208 330.503 391.523 329.517 392.05 328.644C392.578 327.771 393.304 327.034 394.17 326.494Z" fill="#455A64"/>
<path d="M464.226 318.836L483.336 307.804C484.344 307.23 485.156 307.496 485.156 308.406C485.08 308.964 484.876 309.497 484.561 309.964C484.245 310.43 483.826 310.817 483.336 311.094L464.226 322.126C463.232 322.7 462.406 322.434 462.406 321.538C462.483 320.979 462.686 320.445 463.002 319.976C463.317 319.508 463.736 319.118 464.226 318.836Z" fill="#37474F"/>
<path d="M368.76 367.403L396.83 351.205C398.496 350.239 399.854 351.023 399.854 352.955V372.219C399.796 373.269 399.492 374.292 398.967 375.204C398.442 376.116 397.71 376.891 396.83 377.469L368.76 393.667C367.094 394.633 365.736 393.849 365.736 391.917V372.653C365.794 371.602 366.097 370.579 366.623 369.667C367.148 368.756 367.88 367.98 368.76 367.403Z" fill="#0ACBA7"/>
<path d="M373.24 370.09L392.35 359.058C393.358 358.484 394.17 358.75 394.17 359.646C394.096 360.207 393.894 360.742 393.578 361.211C393.262 361.68 392.842 362.069 392.35 362.348L373.24 373.38C372.232 373.954 371.42 373.688 371.42 372.792C371.494 372.232 371.696 371.696 372.012 371.227C372.328 370.758 372.748 370.369 373.24 370.09Z" fill="#F8FAFC"/>
<path d="M371.42 379.806V385.406C371.42 386.568 372.232 387.03 373.24 386.456L392.35 375.424C392.88 375.079 393.321 374.614 393.637 374.067C393.953 373.52 394.136 372.905 394.17 372.274V366.674C394.17 365.512 393.358 365.05 392.35 365.624L373.24 376.6C372.704 376.952 372.26 377.426 371.944 377.984C371.627 378.541 371.448 379.166 371.42 379.806Z" fill="#F8FAFC"/>
<path d="M414.26 341.138L442.26 324.94C443.94 323.974 445.298 324.758 445.298 326.69V345.954C445.241 347.006 444.936 348.031 444.408 348.943C443.88 349.855 443.144 350.63 442.26 351.204L414.26 367.402C412.58 368.368 411.236 367.584 411.236 365.652V346.388C411.29 345.336 411.593 344.313 412.118 343.4C412.644 342.488 413.378 341.713 414.26 341.138Z" fill="#0ACBA7"/>
<path d="M418.74 343.826L437.85 332.794C438.844 332.22 439.656 332.486 439.656 333.382C439.582 333.941 439.38 334.475 439.067 334.943C438.754 335.412 438.338 335.802 437.85 336.084L418.74 347.116C417.732 347.69 416.92 347.424 416.92 346.514C416.996 345.956 417.199 345.423 417.515 344.957C417.831 344.491 418.25 344.104 418.74 343.826Z" fill="#F8FAFC"/>
<path d="M416.92 353.542V359.142C416.92 360.304 417.732 360.766 418.74 360.192L437.85 349.16C438.376 348.812 438.813 348.346 439.126 347.799C439.44 347.253 439.621 346.64 439.656 346.01V340.41C439.656 339.248 438.83 338.786 437.836 339.36L418.726 350.392C418.199 350.739 417.761 351.205 417.447 351.752C417.133 352.299 416.953 352.912 416.92 353.542Z" fill="#F8FAFC"/>
<path d="M459.76 314.875L487.76 298.663C489.426 297.697 490.784 298.481 490.784 300.413V319.691C490.726 320.741 490.422 321.764 489.897 322.676C489.372 323.588 488.64 324.363 487.76 324.941L459.76 341.139C458.08 342.105 456.722 341.321 456.722 339.389V320.125C456.779 319.072 457.084 318.048 457.612 317.136C458.14 316.223 458.876 315.449 459.76 314.875Z" fill="#0ACBA7"/>
<path d="M464.226 317.562L483.336 306.6C484.344 306.012 485.156 306.278 485.156 307.188C485.083 307.747 484.881 308.281 484.565 308.748C484.249 309.215 483.828 309.601 483.336 309.876L464.226 320.908C463.232 321.496 462.406 321.23 462.406 320.32C462.471 319.75 462.67 319.203 462.986 318.723C463.302 318.244 463.727 317.846 464.226 317.562Z" fill="#F8FAFC"/>
<path d="M462.406 327.278V332.878C462.406 334.026 463.232 334.502 464.226 333.928L483.336 322.882C483.866 322.538 484.308 322.074 484.624 321.526C484.94 320.979 485.123 320.364 485.156 319.732V314.132C485.156 312.97 484.344 312.494 483.336 313.082L464.226 324.114C463.695 324.461 463.253 324.929 462.937 325.479C462.621 326.028 462.439 326.645 462.406 327.278Z" fill="#F8FAFC"/>
<path d="M371.798 411.601L484.778 346.375C488.138 344.443 490.84 345.815 490.84 349.441C490.694 351.477 490.068 353.451 489.015 355.2C487.961 356.949 486.51 358.425 484.778 359.507L371.798 424.733C368.452 426.665 365.736 425.293 365.736 421.667C365.885 419.631 366.512 417.659 367.565 415.91C368.618 414.161 370.068 412.685 371.798 411.601Z" fill="#E0E0E0"/>
<path d="M371.798 437.878L484.778 372.652C488.138 370.72 490.84 372.092 490.84 375.718C490.694 377.755 490.068 379.728 489.015 381.477C487.961 383.226 486.51 384.702 484.778 385.784L371.798 451.024C368.452 452.956 365.736 451.584 365.736 447.944C365.885 445.908 366.512 443.936 367.565 442.187C368.618 440.439 370.068 438.962 371.798 437.878Z" fill="#E0E0E0"/>
<path d="M408.576 449.484L448 426.72C449.68 425.754 451.038 426.538 451.038 428.47V441.168C450.981 442.221 450.676 443.245 450.148 444.157C449.62 445.07 448.884 445.844 448 446.418L408.576 469.182C406.896 470.148 405.538 469.364 405.538 467.432V454.734C405.595 453.682 405.9 452.658 406.428 451.745C406.956 450.833 407.692 450.058 408.576 449.484Z" fill="#0ACBA7"/>
<path d="M374.262 413.546C373.442 414.091 372.761 414.821 372.275 415.677C371.789 416.533 371.51 417.491 371.462 418.474C371.462 420.28 372.736 421.022 374.262 420.112C375.082 419.568 375.763 418.838 376.249 417.982C376.735 417.126 377.014 416.168 377.062 415.184C377.104 413.378 375.83 412.636 374.262 413.546Z" fill="#F8FAFC"/>
<path d="M383.278 408.338C382.456 408.881 381.775 409.611 381.288 410.467C380.802 411.323 380.524 412.282 380.478 413.266C380.478 415.072 381.738 415.814 383.278 414.904C384.098 414.359 384.779 413.629 385.265 412.774C385.751 411.918 386.03 410.959 386.078 409.976C386.12 408.17 384.846 407.4 383.278 408.338Z" fill="#F8FAFC"/>
<path d="M392.28 403.201C391.46 403.745 390.779 404.475 390.293 405.331C389.807 406.187 389.528 407.145 389.48 408.129C389.48 409.935 390.754 410.677 392.28 409.767C393.1 409.222 393.781 408.492 394.267 407.636C394.753 406.78 395.032 405.822 395.08 404.839C395.122 402.963 393.848 402.221 392.28 403.201Z" fill="#F8FAFC"/>
<path d="M401.296 397.922C400.475 398.466 399.794 399.196 399.308 400.052C398.821 400.908 398.543 401.867 398.496 402.85C398.496 404.656 399.77 405.398 401.296 404.488C402.116 403.944 402.797 403.214 403.283 402.358C403.769 401.502 404.048 400.544 404.096 399.56C404.138 397.754 402.864 397.012 401.296 397.922Z" fill="#F8FAFC"/>
<path d="M410.298 392.714C409.478 393.259 408.797 393.989 408.311 394.845C407.825 395.701 407.546 396.659 407.498 397.642C407.498 399.448 408.772 400.19 410.298 399.28C411.118 398.736 411.799 398.006 412.285 397.15C412.771 396.294 413.05 395.336 413.098 394.352C413.14 392.546 411.866 391.804 410.298 392.714Z" fill="#F8FAFC"/>
<path d="M419.3 387.506C418.48 388.051 417.799 388.781 417.313 389.637C416.827 390.493 416.548 391.451 416.5 392.434C416.5 394.24 417.774 394.982 419.3 394.072C420.122 393.529 420.803 392.8 421.29 391.944C421.776 391.087 422.054 390.128 422.1 389.144C422.142 387.338 420.882 386.596 419.3 387.506Z" fill="#F8FAFC"/>
<path d="M428.316 382.299C427.496 382.844 426.816 383.573 426.329 384.429C425.843 385.285 425.564 386.244 425.516 387.227C425.516 389.033 426.79 389.775 428.316 388.865C429.136 388.32 429.817 387.59 430.303 386.734C430.789 385.878 431.068 384.92 431.116 383.937C431.2 382.201 429.884 381.389 428.316 382.299Z" fill="#F8FAFC"/>
<path d="M374.262 439.839C373.443 440.385 372.764 441.115 372.278 441.971C371.792 442.827 371.512 443.784 371.462 444.767C371.462 446.587 372.736 447.315 374.262 446.405C375.082 445.863 375.762 445.136 376.249 444.282C376.735 443.428 377.014 442.472 377.062 441.491C377.104 439.671 375.83 438.943 374.262 439.839Z" fill="#F8FAFC"/>
<path d="M383.278 434.631C382.457 435.175 381.776 435.904 381.29 436.76C380.803 437.617 380.525 438.575 380.478 439.559C380.478 441.379 381.738 442.107 383.278 441.197C384.098 440.655 384.778 439.928 385.265 439.074C385.751 438.22 386.03 437.264 386.078 436.283C386.12 434.463 384.846 433.735 383.278 434.631Z" fill="#F8FAFC"/>
<path d="M392.28 429.422C391.462 429.969 390.782 430.699 390.296 431.554C389.81 432.41 389.53 433.367 389.48 434.35C389.48 436.17 390.754 436.898 392.28 435.988C393.1 435.446 393.78 434.719 394.267 433.865C394.753 433.012 395.032 432.055 395.08 431.074C395.122 429.254 393.848 428.512 392.28 429.422Z" fill="#F8FAFC"/>
<path d="M401.296 424.201C400.476 424.745 399.795 425.475 399.309 426.331C398.823 427.187 398.544 428.145 398.496 429.129C398.496 430.949 399.77 431.677 401.296 430.767C402.116 430.225 402.796 429.498 403.283 428.644C403.769 427.79 404.048 426.834 404.096 425.853C404.138 424.047 402.864 423.305 401.296 424.201Z" fill="#F8FAFC"/>
<path d="M410.298 419.006C409.478 419.551 408.797 420.281 408.311 421.137C407.825 421.993 407.546 422.951 407.498 423.934C407.498 425.754 408.772 426.482 410.298 425.572C411.118 425.03 411.798 424.303 412.285 423.449C412.771 422.596 413.05 421.639 413.098 420.658C413.14 418.838 411.866 418.096 410.298 419.006Z" fill="#F8FAFC"/>
<path d="M419.3 413.798C418.48 414.343 417.799 415.073 417.313 415.929C416.827 416.785 416.548 417.743 416.5 418.726C416.5 420.546 417.774 421.274 419.3 420.364C420.123 419.823 420.806 419.094 421.293 418.237C421.78 417.381 422.056 416.421 422.1 415.436C422.142 413.63 420.882 412.888 419.3 413.798Z" fill="#F8FAFC"/>
<path d="M428.316 408.59C427.496 409.135 426.816 409.865 426.329 410.721C425.843 411.577 425.564 412.535 425.516 413.518C425.516 415.338 426.79 416.066 428.316 415.156C429.137 414.612 429.818 413.883 430.305 413.027C430.791 412.171 431.069 411.212 431.116 410.228C431.2 408.422 429.884 407.68 428.316 408.59Z" fill="#F8FAFC"/>
<path d="M554.666 467.782C549.828 467.815 545.068 466.559 540.876 464.142C530.782 458.304 525 446.124 525 430.682C525 403.55 542.248 372.344 564.2 359.632C576.058 352.786 587.832 352.044 597.366 357.546C607.446 363.37 613.242 375.564 613.242 390.992C613.242 418.124 595.994 449.344 573.972 462.056C568.148 465.619 561.491 467.593 554.666 467.782ZM583.59 373.45C580.182 373.691 576.887 374.773 574 376.6C558.04 385.77 544.6 410.564 544.6 430.682C544.6 438.83 546.882 445.018 550.704 447.216C555.058 449.736 561.12 446.992 564.326 445.13C580.328 435.904 593.824 411.11 593.824 390.992C593.824 382.844 591.542 376.67 587.72 374.458C586.46 373.753 585.033 373.405 583.59 373.45Z" fill="#455A64"/>
<path d="M597.254 395.332C597.254 380.086 587.65 374.458 587.65 374.458C591.472 376.67 593.754 382.858 593.754 390.992C593.754 411.11 580.258 435.904 564.256 445.13C561.05 446.992 555.002 449.736 550.634 447.216C550.634 447.216 558.74 452.256 569.94 446.138C586.152 437.304 597.254 415.45 597.254 395.332Z" fill="#37474F"/>
<path d="M581.854 204.806C581.757 202.192 580.65 199.718 578.766 197.903C576.882 196.088 574.369 195.074 571.753 195.074C569.137 195.074 566.623 196.088 564.74 197.903C562.856 199.718 561.749 202.192 561.652 204.806V365.4C561.724 366.3 562.036 367.165 562.556 367.903C563.075 368.642 563.783 369.228 564.606 369.6C566.82 370.719 569.266 371.301 571.746 371.301C574.226 371.301 576.672 370.719 578.886 369.6C579.712 369.231 580.424 368.646 580.946 367.907C581.468 367.168 581.782 366.302 581.854 365.4V204.834V204.806Z" fill="#37474F"/>
<path d="M573.79 240.702C573.68 238.677 573.093 236.706 572.079 234.95C571.065 233.194 569.651 231.701 567.952 230.594C567.353 230.154 566.644 229.888 565.903 229.824C565.163 229.76 564.418 229.9 563.752 230.23L538.86 244.58L538.258 244.93C538.167 244.967 538.082 245.019 538.006 245.084C537.582 245.37 537.184 245.693 536.816 246.05C535.412 247.449 534.559 249.307 534.411 251.284C534.263 253.26 534.831 255.224 536.011 256.817C537.191 258.41 538.905 259.525 540.839 259.959C542.773 260.393 544.799 260.117 546.546 259.182L547.022 258.902L572.096 244.468C572.686 244.046 573.154 243.475 573.452 242.813C573.749 242.152 573.866 241.423 573.79 240.702Z" fill="#455A64"/>
<path d="M573.79 280.91C573.677 278.887 573.09 276.919 572.076 275.166C571.062 273.412 569.649 271.922 567.952 270.816C567.355 270.371 566.647 270.101 565.905 270.034C565.164 269.967 564.419 270.107 563.752 270.438L534.548 287.238L533.946 287.588C533.856 287.627 533.771 287.679 533.694 287.742C533.267 288.025 532.869 288.348 532.504 288.708C531.592 289.616 530.904 290.723 530.495 291.943C530.085 293.163 529.966 294.461 530.145 295.736C530.324 297.01 530.798 298.225 531.528 299.284C532.258 300.344 533.225 301.219 534.352 301.84C535.568 302.485 536.924 302.821 538.3 302.82C539.673 302.826 541.025 302.489 542.234 301.84C542.402 301.756 542.556 301.644 542.71 301.56L572.11 284.76C572.711 284.329 573.185 283.744 573.48 283.066C573.776 282.388 573.883 281.643 573.79 280.91Z" fill="#455A64"/>
</svg>
