<svg width="401" height="400" viewBox="0 0 401 400" fill="none" xmlns="http://www.w3.org/2000/svg">
<path d="M68.8599 334.4C139.868 370.704 254.996 370.704 325.996 334.4C396.996 298.096 397.004 239.2 325.996 202.936C254.988 166.672 139.868 166.632 68.8599 202.936C-2.14807 239.24 -2.14006 298.104 68.8599 334.4Z" fill="#EBFEFA"/>
<path d="M301.084 276.408C304.98 278.656 312.628 277.88 318.164 274.68L350.1 256.128C355.644 252.928 356.972 248.512 353.076 246.256C349.18 244 341.54 244.8 335.996 248L304.076 266.568C298.532 269.744 297.196 274.16 301.084 276.408Z" fill="#E4EAF1"/>
<path d="M108.748 293.52L76.252 274.76L108.748 256V293.52Z" fill="#E4EAF1"/>
<path d="M200.596 304.744L148.22 274.488L200.604 244.288L200.596 304.744Z" fill="#E4EAF1"/>
<path d="M64.7881 249.655C64.8841 242.055 59.5721 226.239 51.8041 216.279C44.0361 206.319 31.7001 198.951 22.9001 201.855C14.6601 204.567 15.4201 215.335 25.3001 222.591C35.1801 229.847 50.0201 238.983 54.2521 251.391L63.2521 266.591L64.7881 249.655Z" fill="#0ACBA7"/>
<path opacity="0.1" d="M64.7881 249.655C64.8841 242.055 59.5721 226.239 51.8041 216.279C44.0361 206.319 31.7001 198.951 22.9001 201.855C14.6601 204.567 15.4201 215.335 25.3001 222.591C35.1801 229.847 50.0201 238.983 54.2521 251.391L63.2521 266.591L64.7881 249.655Z" fill="#101218"/>
<path d="M65.2282 260.063C65.1068 260.052 64.9923 260.002 64.9026 259.919C64.8128 259.837 64.7529 259.727 64.7322 259.607C59.9322 233.599 39.2122 212.255 26.7082 207.447C26.6326 207.426 26.5622 207.39 26.5016 207.341C26.4409 207.291 26.3912 207.23 26.3558 207.16C26.3204 207.09 26.3001 207.013 26.2961 206.935C26.2922 206.857 26.3046 206.779 26.3327 206.706C26.3608 206.633 26.404 206.566 26.4593 206.511C26.5147 206.455 26.5811 206.412 26.6541 206.384C26.7272 206.356 26.8054 206.343 26.8836 206.347C26.9618 206.351 27.0383 206.372 27.1082 206.407C39.8522 211.311 60.9722 233.007 65.8202 259.407C65.8341 259.478 65.8338 259.552 65.8191 259.623C65.8045 259.695 65.7759 259.762 65.7351 259.823C65.6942 259.883 65.6417 259.934 65.5808 259.974C65.5199 260.014 65.4518 260.042 65.3802 260.055L65.2282 260.063Z" fill="white"/>
<path d="M61.1561 276.623C59.9881 272.335 54.8521 265.223 46.4841 259.295C37.2201 252.743 25.4441 249.639 22.7801 244.591C19.5801 238.527 24.7241 232.895 34.3001 234.191C43.8761 235.487 60.5801 248.799 63.0441 268.527L61.1561 276.623Z" fill="#0ACBA7"/>
<path d="M63.068 272.159C62.9612 272.15 62.8591 272.111 62.774 272.046C62.689 271.981 62.6244 271.892 62.588 271.791C54.9 249.463 38.036 241.455 30.196 240.343C30.0507 240.323 29.9193 240.246 29.8308 240.129C29.7422 240.012 29.7038 239.865 29.724 239.719C29.7442 239.574 29.8212 239.443 29.9382 239.354C30.0553 239.266 30.2027 239.227 30.348 239.247C39.02 240.479 55.796 248.639 63.644 271.423C63.6904 271.564 63.6805 271.716 63.6162 271.849C63.552 271.982 63.4386 272.085 63.3 272.135C63.225 272.159 63.1462 272.167 63.068 272.159Z" fill="white"/>
<path d="M348.444 228C348.444 228 349.508 212 358.948 200.08C368.388 188.16 367.812 183.28 361.3 180.88C354.788 178.48 339.7 192.84 343.028 212C346.356 231.16 348.444 228 348.444 228Z" fill="#0ACBA7"/>
<path opacity="0.1" d="M348.444 228C348.444 228 349.508 212 358.948 200.08C368.388 188.16 367.812 183.28 361.3 180.88C354.788 178.48 339.7 192.84 343.028 212C346.356 231.16 348.444 228 348.444 228Z" fill="#101218"/>
<path d="M345.556 218.863C345.462 218.864 345.371 218.829 345.301 218.765C345.231 218.701 345.188 218.613 345.18 218.519C344.084 200.871 356.54 186.391 361.18 183.111C361.219 183.083 361.264 183.062 361.311 183.051C361.358 183.04 361.407 183.038 361.455 183.046C361.503 183.054 361.549 183.072 361.589 183.099C361.63 183.125 361.665 183.159 361.692 183.199C361.749 183.28 361.771 183.38 361.755 183.477C361.738 183.575 361.684 183.662 361.604 183.719C357.028 186.919 344.804 201.135 345.892 218.471C345.897 218.569 345.863 218.664 345.799 218.737C345.735 218.81 345.645 218.855 345.548 218.863H345.556Z" fill="white"/>
<path d="M345.876 241.247C350.127 242.636 354.482 243.685 358.9 244.383C366.212 245.535 369.444 242.039 369.444 242.039C369.444 242.039 366.564 235.183 362.412 233.239C366.904 234.248 371.194 236.009 375.1 238.447C375.1 238.447 379.564 238.519 381.34 231.703C381.34 231.703 378.7 227.599 369.82 225.383C369.82 225.383 375.22 224.023 383.004 226.007C383.588 226.239 386.076 217.431 386.828 213.367C387.58 209.303 385.948 209.367 382.78 208.495C379.612 207.623 369.108 205.295 367.124 207.031C365.14 208.767 364.132 214.735 364.132 214.735C363.346 212.292 363.244 209.68 363.836 207.183C363.836 207.183 360.988 206.071 356.556 207.359C352.94 208.407 352.764 210.871 352.924 213.655C353.138 216.074 353.676 218.452 354.524 220.727C354.524 220.727 351.7 217.111 351.612 209.263C351.612 209.263 344.204 212.943 342.94 220.303C342.204 224.295 341.228 235.999 345.876 241.247Z" fill="#0ACBA7"/>
<path d="M347.268 239.824C347.346 239.823 347.422 239.802 347.489 239.761C347.555 239.72 347.609 239.661 347.644 239.592C353.54 227.328 375.484 213.08 383.34 211.552C383.393 211.542 383.444 211.522 383.49 211.493C383.535 211.463 383.574 211.425 383.605 211.38C383.635 211.336 383.657 211.285 383.667 211.232C383.678 211.179 383.679 211.125 383.668 211.072C383.645 210.965 383.581 210.871 383.49 210.809C383.399 210.748 383.288 210.725 383.18 210.744C375.18 212.304 352.892 226.744 346.9 239.232C346.853 239.331 346.847 239.444 346.883 239.547C346.919 239.65 346.994 239.735 347.092 239.784C347.148 239.808 347.208 239.822 347.268 239.824Z" fill="white"/>
<path d="M61.9241 282.288C61.0201 282.288 60.4761 281.544 60.4761 280.288V145.72L225.3 50.5762V184.6C225.243 185.719 224.924 186.809 224.368 187.782C223.812 188.755 223.035 189.583 222.1 190.2L63.2361 281.88C62.8419 282.129 62.3896 282.269 61.9241 282.288Z" fill="#F8FAFC"/>
<path d="M224.804 51.3838V184.6C224.737 185.638 224.431 186.646 223.911 187.547C223.391 188.447 222.67 189.215 221.804 189.792L63.0039 281.472C62.6806 281.681 62.3084 281.802 61.9239 281.824C61.0359 281.824 60.9399 280.744 60.9399 280.288V145.992L224.804 51.3838ZM225.74 49.7838L60.0039 145.448V280.288C60.0039 281.888 60.8039 282.76 61.9239 282.76C62.4709 282.74 63.0033 282.577 63.4679 282.288L222.276 190.6C223.284 189.942 224.123 189.056 224.725 188.014C225.326 186.971 225.674 185.802 225.74 184.6V49.7598V49.7838Z" fill="#E0E0E0"/>
<path d="M60.0117 145.448V167.968L225.74 72.2798V49.7598L60.0117 145.448Z" fill="#0ACBA7"/>
<path d="M73.0039 146.648V149.848C73.0039 150.504 73.4759 150.776 74.0439 150.448L124.996 121.032V115.432L74.0439 144.848C73.7429 145.047 73.4923 145.313 73.3118 145.625C73.1313 145.937 73.0259 146.288 73.0039 146.648Z" fill="#F8FAFC"/>
<path d="M130.46 112.28C131.036 111.944 131.5 112.216 131.5 112.88V116.08C131.479 116.44 131.374 116.791 131.194 117.103C131.013 117.416 130.762 117.682 130.46 117.88L124.996 121.032V115.432L130.46 112.28Z" fill="#455A64"/>
<path d="M60.0039 138.192C60.0696 136.99 60.4174 135.821 61.0192 134.778C61.621 133.736 62.4599 132.85 63.4679 132.192L222.276 40.5039C224.188 39.3999 225.74 40.2959 225.74 42.5039V49.7599L60.0039 145.448V138.192Z" fill="#455A64"/>
<path d="M207.316 52.9118C206.847 53.2214 206.458 53.637 206.181 54.1248C205.903 54.6126 205.743 55.1591 205.716 55.7198C205.716 56.7598 206.444 57.1758 207.316 56.6638C207.784 56.3525 208.173 55.9355 208.451 55.4464C208.729 54.9573 208.888 54.4097 208.916 53.8478C208.948 52.7998 208.22 52.3918 207.316 52.9118Z" fill="#0ACBA7"/>
<path d="M212.5 49.9358C212.031 50.2454 211.643 50.6609 211.365 51.1487C211.087 51.6366 210.927 52.183 210.9 52.7438C210.9 53.7838 211.628 54.1998 212.5 53.6878C212.968 53.3756 213.356 52.9583 213.634 52.4694C213.911 51.9805 214.071 51.4334 214.1 50.8718C214.1 49.8318 213.364 49.4158 212.5 49.9358Z" fill="#0ACBA7"/>
<path d="M217.612 46.9602C217.143 47.2698 216.754 47.6853 216.476 48.1731C216.198 48.661 216.039 49.2074 216.012 49.7682C216.012 50.8082 216.74 51.2242 217.612 50.7122C218.079 50.4 218.468 49.9827 218.745 49.4938C219.023 49.0049 219.183 48.4578 219.212 47.8962C219.236 46.8562 218.508 46.4402 217.612 46.9602Z" fill="#0ACBA7"/>
<g opacity="0.1">
<path opacity="0.1" d="M173.74 86.9359C172.707 87.6119 171.847 88.522 171.231 89.5923C170.616 90.6625 170.261 91.8629 170.196 93.0959C170.196 95.3599 171.796 96.2959 173.74 95.1439C174.774 94.4705 175.635 93.5623 176.253 92.4933C176.87 91.4243 177.226 90.2246 177.292 88.9919C177.3 86.7279 175.7 85.8079 173.74 86.9359Z" fill="#101218"/>
<path opacity="0.1" d="M157.5 96.3198C156.465 96.9932 155.604 97.9014 154.987 98.9704C154.37 100.039 154.014 101.239 153.948 102.472C153.948 104.736 155.548 105.672 157.5 104.528C158.533 103.852 159.392 102.942 160.008 101.871C160.624 100.801 160.979 99.6008 161.044 98.3678C161.044 96.1038 159.46 95.1998 157.5 96.3198Z" fill="#101218"/>
<path opacity="0.1" d="M189.988 77.5997C188.955 78.274 188.095 79.1826 187.48 80.2516C186.864 81.3205 186.509 82.5198 186.444 83.7517C186.444 86.0157 188.044 86.9517 189.988 85.7997C191.023 85.1268 191.884 84.2187 192.501 83.1496C193.119 82.0805 193.475 80.8805 193.54 79.6477C193.54 77.3437 191.956 76.4237 189.988 77.5997Z" fill="#101218"/>
<path opacity="0.1" d="M206.244 68.1598C205.209 68.8332 204.348 69.7414 203.731 70.8104C203.114 71.8795 202.758 73.0791 202.692 74.3118C202.692 76.5758 204.292 77.5118 206.244 76.3598C207.278 75.6864 208.139 74.7782 208.757 73.7092C209.374 72.6402 209.73 71.4405 209.796 70.2078C209.796 67.9438 208.204 67.0238 206.244 68.1598Z" fill="#101218"/>
</g>
<path d="M76.5001 169.72L115.068 147.448C116.98 146.344 118.532 147.24 118.532 149.448V186.48C118.466 187.682 118.119 188.852 117.517 189.894C116.915 190.936 116.076 191.822 115.068 192.48L76.5001 214.744C74.5881 215.848 73.0361 214.952 73.0361 212.744V175.72C73.1018 174.518 73.4496 173.349 74.0515 172.306C74.6533 171.264 75.4921 170.378 76.5001 169.72Z" fill="#E0E0E0"/>
<path d="M131.7 137.824L212.5 91.2003C214.412 90.0883 215.964 90.9843 215.964 93.2003V130.224C215.898 131.426 215.55 132.596 214.949 133.638C214.347 134.68 213.508 135.566 212.5 136.224L131.7 182.848C129.788 183.952 128.236 183.056 128.236 180.848V143.824C128.302 142.622 128.649 141.453 129.251 140.41C129.853 139.368 130.692 138.482 131.7 137.824Z" fill="#E0E0E0"/>
<path d="M76.5001 226L137.812 190.6C139.732 189.496 141.284 190.28 141.284 192.352C141.199 193.515 140.841 194.642 140.239 195.641C139.637 196.641 138.808 197.484 137.82 198.104L76.5001 233.504C74.5881 234.608 73.0361 233.824 73.0361 231.752C73.1216 230.589 73.4797 229.462 74.0815 228.462C74.6833 227.463 75.5119 226.62 76.5001 226Z" fill="#E0E0E0"/>
<path d="M76.5001 239.136L137.812 203.736C139.732 202.632 141.284 203.416 141.284 205.488C141.199 206.651 140.841 207.778 140.239 208.777C139.637 209.776 138.808 210.62 137.82 211.24L76.5001 246.64C74.5881 247.744 73.0361 246.96 73.0361 244.888C73.1216 243.724 73.4797 242.597 74.0815 241.598C74.6833 240.599 75.5119 239.755 76.5001 239.136Z" fill="#E0E0E0"/>
<path d="M76.5001 252.264L137.812 216.864C139.732 215.76 141.284 216.544 141.284 218.616C141.199 219.779 140.841 220.906 140.239 221.905C139.637 222.904 138.808 223.748 137.82 224.368L76.5001 259.768C74.5881 260.872 73.0361 260.088 73.0361 258.016C73.1216 256.852 73.4797 255.725 74.0815 254.726C74.6833 253.727 75.5119 252.883 76.5001 252.264Z" fill="#E0E0E0"/>
<path d="M105.5 207.736C105.541 207.015 105.75 206.314 106.112 205.689C106.473 205.063 106.976 204.532 107.58 204.136L213.908 142.752C214.552 142.425 215.265 142.254 215.988 142.254C216.711 142.254 217.424 142.425 218.068 142.752L220.412 144.104C221.016 144.499 221.518 145.031 221.878 145.656C222.238 146.282 222.446 146.983 222.484 147.704V229.208C222.445 229.928 222.237 230.629 221.877 231.255C221.517 231.88 221.015 232.412 220.412 232.808L114.1 294.192C113.456 294.519 112.743 294.69 112.02 294.69C111.297 294.69 110.584 294.519 109.94 294.192L107.596 292.84C106.991 292.445 106.488 291.913 106.127 291.288C105.766 290.663 105.556 289.961 105.516 289.24L105.5 207.736Z" fill="#0ACBA7"/>
<path opacity="0.4" d="M106.1 205.688L112.004 209.096L221.868 145.656C221.517 145.023 221.014 144.487 220.404 144.096L218.1 142.752C217.458 142.425 216.748 142.254 216.028 142.254C215.308 142.254 214.598 142.425 213.956 142.752L107.58 204.136C106.964 204.52 106.455 205.054 106.1 205.688Z" fill="white"/>
<path opacity="0.1" d="M105.5 207.736V289.24C105.54 289.961 105.75 290.662 106.111 291.287C106.472 291.913 106.975 292.444 107.58 292.84L109.924 294.192C110.104 294.296 110.294 294.382 110.492 294.448C110.77 294.541 111.057 294.608 111.348 294.648C111.895 294.715 112.448 294.693 112.988 294.584C113.126 294.558 113.263 294.524 113.396 294.48L113.644 294.384C113.486 294.452 113.316 294.487 113.144 294.487C112.972 294.487 112.802 294.452 112.644 294.384C112.423 294.236 112.246 294.03 112.135 293.789C112.023 293.547 111.981 293.28 112.012 293.016V211.496C111.991 211.125 112.083 210.757 112.276 210.44C112.469 210.122 112.753 209.871 113.092 209.72L112.012 209.096L106.1 205.688C105.729 206.308 105.523 207.013 105.5 207.736Z" fill="#101218"/>
<path opacity="0.2" d="M112.012 209.096L161.252 227.496C162.955 228.13 164.823 228.166 166.549 227.598C168.275 227.029 169.756 225.89 170.748 224.368L178.652 212.256L222.268 145.432L180.228 212.712L222.484 229.248C222.449 229.982 222.226 230.696 221.836 231.32L180.116 212.92L170.9 227.6C169.879 229.231 168.304 230.439 166.465 231.003C164.625 231.567 162.644 231.45 160.884 230.672L154.34 227.784L112.644 294.4C112.423 294.252 112.246 294.046 112.135 293.805C112.023 293.563 111.981 293.296 112.012 293.032V291.68L154.156 227.736L112.012 209.096Z" fill="#101218"/>
<path d="M199.74 115.528V302.648C199.74 304.856 201.292 305.752 203.204 304.648L287.268 256.112C288.276 255.454 289.115 254.568 289.717 253.526C290.319 252.484 290.667 251.314 290.732 250.112V62.9922C290.732 60.7842 289.18 59.8882 287.268 60.9922L203.204 109.528C202.195 110.185 201.356 111.071 200.754 112.113C200.152 113.156 199.805 114.326 199.74 115.528Z" fill="#F8FAFC" stroke="#E0E0E0" stroke-width="1.16981" stroke-miterlimit="10"/>
<path d="M204.612 119.009C204.639 118.712 204.735 118.426 204.892 118.174C205.049 117.921 205.263 117.708 205.516 117.553L215.116 112.025C215.612 111.737 216.012 111.929 216.012 112.449C215.987 112.744 215.892 113.03 215.737 113.283C215.581 113.536 215.369 113.749 215.116 113.905L205.516 119.433C205.02 119.721 204.612 119.529 204.612 119.009Z" fill="#455A64"/>
<path d="M204.612 122.736C204.639 122.44 204.734 122.154 204.891 121.901C205.048 121.648 205.262 121.436 205.516 121.28L215.116 115.752C215.612 115.464 216.012 115.656 216.012 116.168C215.988 116.466 215.894 116.753 215.739 117.007C215.583 117.261 215.37 117.476 215.116 117.632L205.516 123.152C205.02 123.44 204.612 123.256 204.612 122.736Z" fill="#455A64"/>
<path d="M204.612 126.465C204.639 126.168 204.734 125.882 204.891 125.629C205.048 125.376 205.262 125.164 205.516 125.009L215.116 119.481C215.612 119.193 216.012 119.377 216.012 119.897C215.988 120.193 215.894 120.479 215.739 120.732C215.583 120.985 215.37 121.198 215.116 121.353L205.516 126.881C205.02 127.201 204.612 126.985 204.612 126.465Z" fill="#455A64"/>
<path d="M284.236 78.4804V76.9844C284.237 76.9662 284.233 76.9482 284.224 76.9321C284.216 76.916 284.203 76.9024 284.188 76.8927C284.172 76.883 284.155 76.8775 284.137 76.8767C284.118 76.8759 284.1 76.88 284.084 76.8884L282.932 77.4084C282.914 77.4174 282.894 77.4222 282.874 77.4225C282.854 77.4228 282.834 77.4185 282.815 77.4101C282.797 77.4017 282.781 77.3893 282.768 77.3737C282.755 77.3582 282.745 77.34 282.74 77.3204C282.679 77.121 282.593 76.9301 282.484 76.7524C282.462 76.7089 282.451 76.661 282.451 76.6124C282.451 76.5638 282.462 76.5158 282.484 76.4724L283.284 74.9204C283.304 74.8811 283.307 74.8356 283.294 74.7937C283.281 74.7518 283.251 74.7169 283.212 74.6964L282.412 74.2164C282.374 74.1972 282.331 74.1922 282.29 74.2025C282.249 74.2128 282.213 74.2376 282.188 74.2724L281.228 75.7124C281.2 75.751 281.162 75.7821 281.119 75.803C281.076 75.8239 281.028 75.834 280.98 75.8324C280.771 75.8307 280.561 75.8521 280.356 75.8964C280.337 75.9025 280.316 75.904 280.296 75.901C280.276 75.898 280.256 75.8904 280.239 75.8789C280.222 75.8673 280.208 75.8521 280.198 75.8344C280.188 75.8166 280.182 75.7968 280.18 75.7764L280.052 74.5204C280.052 74.4324 279.972 74.3924 279.9 74.4404L278.604 75.1844C278.563 75.2113 278.529 75.2466 278.502 75.288C278.476 75.3294 278.459 75.3759 278.452 75.4244L278.324 76.8644C278.307 76.9666 278.26 77.0613 278.188 77.1364C277.929 77.3847 277.688 77.6521 277.468 77.9364C277.437 77.9723 277.397 77.9983 277.351 78.0111C277.306 78.0239 277.257 78.023 277.212 78.0084L276.412 77.7204C276.369 77.7068 276.323 77.7081 276.281 77.7241C276.239 77.74 276.203 77.7697 276.18 77.8084L275.228 79.4564C275.209 79.4955 275.202 79.5398 275.21 79.5828C275.217 79.6259 275.237 79.6656 275.268 79.6964L275.94 80.2724C275.973 80.3052 275.997 80.3464 276.008 80.3915C276.019 80.4366 276.018 80.4839 276.004 80.5284C275.881 80.8574 275.779 81.1941 275.7 81.5364C275.673 81.6334 275.618 81.7199 275.54 81.7844L274.356 82.5844C274.317 82.615 274.284 82.6536 274.261 82.6977C274.237 82.7419 274.223 82.7905 274.22 82.8404V84.3284C274.216 84.3475 274.218 84.3674 274.226 84.3854C274.234 84.4034 274.246 84.4186 274.263 84.4291C274.28 84.4395 274.299 84.4446 274.318 84.4438C274.338 84.443 274.357 84.4362 274.372 84.4244L275.524 83.9044C275.543 83.8969 275.563 83.8935 275.584 83.8944C275.604 83.8953 275.624 83.9004 275.642 83.9095C275.66 83.9185 275.676 83.9313 275.689 83.947C275.702 83.9626 275.711 83.9808 275.716 84.0004C275.777 84.1998 275.863 84.3907 275.972 84.5684C275.994 84.6118 276.005 84.6598 276.005 84.7084C276.005 84.757 275.994 84.8049 275.972 84.8484L275.172 86.3924C275.154 86.4332 275.151 86.4793 275.165 86.522C275.178 86.5646 275.206 86.6011 275.244 86.6244L276.044 87.1044C276.082 87.1236 276.126 87.1285 276.167 87.1182C276.208 87.108 276.244 87.0831 276.268 87.0484L277.228 85.6084C277.257 85.5698 277.294 85.5387 277.337 85.5178C277.381 85.4969 277.428 85.4868 277.476 85.4884C277.686 85.4901 277.895 85.4686 278.1 85.4244C278.12 85.4183 278.141 85.4167 278.161 85.4198C278.181 85.4228 278.2 85.4304 278.217 85.4419C278.234 85.4534 278.248 85.4686 278.258 85.4864C278.269 85.5041 278.275 85.524 278.276 85.5444L278.404 86.8004C278.404 86.8884 278.476 86.9284 278.556 86.8804L279.852 86.1364C279.893 86.1075 279.928 86.0707 279.954 86.028C279.98 85.9854 279.997 85.9379 280.004 85.8884L280.132 84.4484C280.148 84.348 280.196 84.2555 280.268 84.1844C280.528 83.9361 280.769 83.6686 280.988 83.3844C281.019 83.3485 281.06 83.3225 281.105 83.3097C281.151 83.2969 281.199 83.2978 281.244 83.3124L282.044 83.6004C282.087 83.614 282.133 83.6127 282.176 83.5967C282.218 83.5807 282.253 83.551 282.276 83.5124L283.228 81.8644C283.249 81.8235 283.255 81.7771 283.246 81.7323C283.238 81.6874 283.214 81.6467 283.18 81.6164L282.516 81.0484C282.483 81.0155 282.46 80.9744 282.449 80.9293C282.437 80.8842 282.439 80.8368 282.452 80.7924C282.576 80.4634 282.677 80.1267 282.756 79.7844C282.779 79.6855 282.835 79.5977 282.916 79.5364L284.1 78.7364C284.139 78.7051 284.171 78.6663 284.195 78.6223C284.218 78.5783 284.232 78.53 284.236 78.4804ZM279.172 83.2004C277.964 83.9044 276.988 83.3364 276.988 81.9444C277.026 81.1845 277.243 80.4443 277.623 79.785C278.003 79.1257 278.534 78.5661 279.172 78.1524C280.38 77.4564 281.356 78.0244 281.356 79.4164C281.318 80.1749 281.099 80.9135 280.72 81.5713C280.34 82.2291 279.81 82.7874 279.172 83.2004Z" fill="#37474F"/>
<path d="M245.236 115.36C255.06 109.688 263.02 114.288 263.02 125.632C263.02 136.976 255.06 150.76 245.236 156.432C235.412 162.104 227.452 157.504 227.452 146.168C227.452 134.832 235.412 121.032 245.236 115.36Z" fill="#455A64"/>
<path d="M245.116 124.288C248.316 122.448 250.884 123.936 250.884 127.616C250.775 129.616 250.195 131.562 249.193 133.297C248.191 135.032 246.794 136.506 245.116 137.6C241.916 139.44 239.34 137.952 239.34 134.272C239.45 132.271 240.031 130.324 241.034 128.589C242.038 126.854 243.436 125.381 245.116 124.288Z" fill="#0ACBA7"/>
<path d="M256.5 143.904C256.5 137.864 252.252 135.408 247.02 138.432L243.7 140.32C238.468 143.344 234.22 150.72 234.22 156.744V158.4C235.208 158.716 236.239 158.875 237.276 158.872C240.083 158.777 242.816 157.949 245.204 156.472C249.774 153.665 253.638 149.847 256.5 145.312V143.904Z" fill="#0ACBA7"/>
<path d="M229.188 173.305L261.3 154.769C262.252 154.217 263.028 154.609 263.028 155.649C262.985 156.229 262.806 156.791 262.506 157.29C262.206 157.789 261.793 158.21 261.3 158.521L229.196 177.057C228.236 177.617 227.46 177.217 227.46 176.185C227.502 175.603 227.68 175.038 227.98 174.538C228.28 174.038 228.694 173.615 229.188 173.305Z" fill="#0ACBA7"/>
<path d="M225.74 186.568L264.732 164C265.692 163.448 266.468 163.84 266.468 164.88C266.425 165.461 266.245 166.024 265.943 166.523C265.642 167.022 265.227 167.443 264.732 167.752L225.74 190.32C224.78 190.872 224.004 190.48 224.004 189.44C224.048 188.859 224.228 188.296 224.529 187.797C224.831 187.298 225.246 186.877 225.74 186.568Z" fill="#455A64"/>
<path d="M265.772 182.192L276.692 175.888C277.268 175.56 277.732 175.712 277.732 176.232C277.689 176.551 277.573 176.855 277.392 177.122C277.212 177.388 276.972 177.609 276.692 177.768L265.772 184.072C265.204 184.4 264.732 184.248 264.732 183.736C264.776 183.416 264.893 183.111 265.073 182.843C265.253 182.575 265.493 182.353 265.772 182.192Z" fill="#37474F"/>
<path d="M211.22 209.944L227.26 200.688C228.212 200.136 228.988 200.584 228.988 201.688V212.696C228.955 213.297 228.782 213.881 228.481 214.402C228.181 214.923 227.763 215.367 227.26 215.696L211.22 224.952C210.268 225.504 209.492 225.056 209.492 223.952V212.944C209.525 212.344 209.699 211.76 209.999 211.239C210.299 210.718 210.717 210.274 211.22 209.944Z" fill="#0ACBA7"/>
<path d="M213.78 211.48L224.7 205.176C225.276 204.848 225.74 205 225.74 205.512C225.698 205.832 225.582 206.139 225.402 206.406C225.221 206.674 224.981 206.897 224.7 207.056L213.78 213.36C213.204 213.688 212.74 213.536 212.74 213.024C212.782 212.704 212.898 212.398 213.079 212.13C213.259 211.862 213.499 211.64 213.78 211.48Z" fill="#F8FAFC"/>
<path d="M212.74 217.032V220.232C212.74 220.896 213.204 221.16 213.78 220.832L224.7 214.528C225.003 214.331 225.255 214.065 225.436 213.752C225.616 213.439 225.721 213.088 225.74 212.728V209.528C225.74 208.864 225.276 208.6 224.7 208.928L213.78 215.2C213.474 215.401 213.22 215.672 213.039 215.99C212.859 216.309 212.756 216.666 212.74 217.032Z" fill="#F8FAFC"/>
<path d="M237.22 194.937L253.22 185.681C254.18 185.129 254.956 185.577 254.956 186.681V197.689C254.924 198.29 254.749 198.875 254.448 199.397C254.146 199.918 253.725 200.361 253.22 200.689L237.22 209.945C236.26 210.497 235.492 210.049 235.492 208.945V197.937C235.523 197.336 235.696 196.751 235.996 196.229C236.297 195.708 236.716 195.265 237.22 194.937Z" fill="#0ACBA7"/>
<path d="M239.78 196.472L250.7 190.168C251.268 189.84 251.732 189.992 251.732 190.504C251.69 190.824 251.575 191.129 251.396 191.396C251.217 191.664 250.979 191.887 250.7 192.048L239.78 198.352C239.204 198.68 238.74 198.528 238.74 198.008C238.784 197.689 238.9 197.385 239.08 197.118C239.261 196.852 239.5 196.631 239.78 196.472Z" fill="#F8FAFC"/>
<path d="M238.74 202.024V205.224C238.74 205.888 239.204 206.152 239.78 205.824L250.7 199.52C251.001 199.321 251.25 199.055 251.429 198.742C251.609 198.43 251.712 198.08 251.732 197.72V194.52C251.732 193.856 251.26 193.592 250.692 193.92L239.772 200.224C239.471 200.422 239.221 200.688 239.041 201.001C238.862 201.313 238.759 201.664 238.74 202.024Z" fill="#F8FAFC"/>
<path d="M263.22 179.928L279.22 170.664C280.172 170.112 280.948 170.56 280.948 171.664V182.68C280.915 183.28 280.742 183.865 280.442 184.386C280.142 184.907 279.723 185.35 279.22 185.68L263.22 194.936C262.26 195.488 261.484 195.04 261.484 193.936V182.928C261.517 182.327 261.691 181.741 261.993 181.22C262.295 180.699 262.715 180.256 263.22 179.928Z" fill="#0ACBA7"/>
<path d="M265.772 181.464L276.692 175.2C277.268 174.864 277.732 175.016 277.732 175.536C277.691 175.856 277.575 176.161 277.395 176.428C277.214 176.694 276.974 176.915 276.692 177.072L265.772 183.376C265.204 183.712 264.732 183.56 264.732 183.04C264.77 182.714 264.883 182.402 265.064 182.128C265.245 181.854 265.487 181.627 265.772 181.464Z" fill="#F8FAFC"/>
<path d="M264.732 187.016V190.216C264.732 190.872 265.204 191.144 265.772 190.816L276.692 184.504C276.996 184.307 277.248 184.042 277.429 183.729C277.609 183.416 277.714 183.065 277.732 182.704V179.504C277.732 178.84 277.268 178.568 276.692 178.904L265.772 185.208C265.469 185.406 265.217 185.673 265.036 185.988C264.855 186.302 264.751 186.654 264.732 187.016Z" fill="#F8FAFC"/>
<path d="M212.956 235.2L277.516 197.928C279.436 196.824 280.98 197.608 280.98 199.68C280.897 200.844 280.539 201.971 279.937 202.971C279.335 203.971 278.506 204.814 277.516 205.432L212.956 242.704C211.044 243.808 209.492 243.024 209.492 240.952C209.578 239.789 209.936 238.662 210.538 237.663C211.139 236.663 211.968 235.82 212.956 235.2Z" fill="#E0E0E0"/>
<path d="M212.956 250.217L277.516 212.945C279.436 211.841 280.98 212.625 280.98 214.697C280.897 215.86 280.539 216.988 279.937 217.988C279.335 218.987 278.506 219.83 277.516 220.449L212.956 257.729C211.044 258.833 209.492 258.049 209.492 255.969C209.578 254.805 209.936 253.678 210.538 252.679C211.139 251.68 211.968 250.836 212.956 250.217Z" fill="#E0E0E0"/>
<path d="M233.972 256.848L256.5 243.84C257.46 243.288 258.236 243.736 258.236 244.84V252.096C258.204 252.697 258.029 253.283 257.728 253.804C257.426 254.325 257.006 254.768 256.5 255.096L233.972 268.104C233.012 268.656 232.236 268.208 232.236 267.104V259.848C232.269 259.246 232.443 258.661 232.745 258.14C233.047 257.619 233.467 257.176 233.972 256.848Z" fill="#0ACBA7"/>
<path d="M214.364 236.312C213.896 236.624 213.507 237.041 213.229 237.53C212.951 238.019 212.792 238.566 212.764 239.128C212.764 240.16 213.492 240.584 214.364 240.064C214.833 239.753 215.222 239.336 215.5 238.847C215.777 238.358 215.937 237.81 215.964 237.248C215.988 236.216 215.26 235.792 214.364 236.312Z" fill="#F8FAFC"/>
<path d="M219.516 233.336C219.047 233.646 218.657 234.063 218.379 234.552C218.101 235.042 217.942 235.59 217.916 236.152C217.916 237.184 218.636 237.608 219.516 237.088C219.985 236.777 220.374 236.36 220.651 235.87C220.929 235.381 221.088 234.834 221.116 234.272C221.14 233.24 220.412 232.8 219.516 233.336Z" fill="#F8FAFC"/>
<path d="M224.66 230.4C224.191 230.711 223.803 231.128 223.525 231.617C223.247 232.106 223.088 232.654 223.06 233.216C223.06 234.248 223.788 234.672 224.66 234.152C225.129 233.84 225.518 233.423 225.795 232.934C226.073 232.445 226.233 231.898 226.26 231.336C226.284 230.264 225.556 229.84 224.66 230.4Z" fill="#F8FAFC"/>
<path d="M229.812 227.385C229.343 227.695 228.954 228.112 228.676 228.601C228.398 229.091 228.239 229.638 228.212 230.201C228.212 231.233 228.94 231.657 229.812 231.137C230.281 230.825 230.67 230.408 230.948 229.919C231.226 229.43 231.385 228.882 231.412 228.321C231.436 227.289 230.708 226.865 229.812 227.385Z" fill="#F8FAFC"/>
<path d="M234.956 224.408C234.488 224.719 234.099 225.136 233.821 225.625C233.543 226.115 233.384 226.662 233.356 227.224C233.356 228.256 234.084 228.68 234.956 228.16C235.425 227.849 235.814 227.432 236.092 226.943C236.37 226.453 236.529 225.906 236.556 225.344C236.58 224.312 235.852 223.888 234.956 224.408Z" fill="#F8FAFC"/>
<path d="M240.1 221.432C239.631 221.744 239.243 222.161 238.965 222.65C238.687 223.139 238.528 223.686 238.5 224.248C238.5 225.28 239.228 225.704 240.1 225.184C240.569 224.874 240.959 224.457 241.237 223.968C241.515 223.479 241.674 222.931 241.7 222.368C241.724 221.336 241.004 220.912 240.1 221.432Z" fill="#F8FAFC"/>
<path d="M245.252 218.457C244.784 218.768 244.395 219.185 244.117 219.674C243.839 220.163 243.68 220.711 243.652 221.273C243.652 222.305 244.38 222.729 245.252 222.209C245.721 221.897 246.11 221.48 246.388 220.991C246.666 220.502 246.825 219.954 246.852 219.393C246.9 218.401 246.148 217.937 245.252 218.457Z" fill="#F8FAFC"/>
<path d="M214.364 251.336C213.896 251.648 213.508 252.065 213.23 252.554C212.953 253.043 212.793 253.59 212.764 254.152C212.764 255.192 213.492 255.608 214.364 255.088C214.833 254.778 215.222 254.363 215.499 253.875C215.777 253.387 215.937 252.841 215.964 252.28C215.988 251.24 215.26 250.824 214.364 251.336Z" fill="#F8FAFC"/>
<path d="M219.516 248.36C219.047 248.671 218.658 249.088 218.38 249.577C218.102 250.066 217.943 250.614 217.916 251.176C217.916 252.216 218.636 252.632 219.516 252.112C219.984 251.803 220.373 251.387 220.651 250.899C220.929 250.412 221.088 249.865 221.116 249.304C221.14 248.264 220.412 247.848 219.516 248.36Z" fill="#F8FAFC"/>
<path d="M224.66 245.384C224.192 245.697 223.804 246.114 223.526 246.603C223.249 247.092 223.089 247.639 223.06 248.2C223.06 249.24 223.788 249.656 224.66 249.136C225.128 248.827 225.517 248.411 225.795 247.923C226.073 247.436 226.233 246.889 226.26 246.328C226.284 245.288 225.556 244.864 224.66 245.384Z" fill="#F8FAFC"/>
<path d="M229.812 242.4C229.344 242.711 228.955 243.128 228.677 243.617C228.399 244.106 228.24 244.654 228.212 245.216C228.212 246.256 228.94 246.672 229.812 246.152C230.281 245.842 230.67 245.427 230.948 244.939C231.226 244.451 231.385 243.905 231.412 243.344C231.436 242.312 230.708 241.888 229.812 242.4Z" fill="#F8FAFC"/>
<path d="M234.956 239.432C234.488 239.743 234.099 240.161 233.821 240.65C233.543 241.139 233.384 241.686 233.356 242.248C233.356 243.288 234.084 243.704 234.956 243.184C235.425 242.875 235.814 242.459 236.092 241.971C236.37 241.483 236.529 240.937 236.556 240.376C236.58 239.336 235.852 238.912 234.956 239.432Z" fill="#F8FAFC"/>
<path d="M240.1 236.456C239.631 236.767 239.243 237.184 238.965 237.673C238.687 238.162 238.528 238.71 238.5 239.272C238.5 240.312 239.228 240.728 240.1 240.208C240.57 239.898 240.961 239.482 241.239 238.992C241.517 238.503 241.675 237.954 241.7 237.392C241.724 236.36 241.004 235.936 240.1 236.456Z" fill="#F8FAFC"/>
<path d="M245.252 233.48C244.784 233.792 244.395 234.209 244.117 234.698C243.839 235.187 243.68 235.734 243.652 236.296C243.652 237.336 244.38 237.752 245.252 237.232C245.721 236.921 246.111 236.504 246.389 236.015C246.667 235.526 246.825 234.978 246.852 234.416C246.9 233.384 246.148 232.96 245.252 233.48Z" fill="#F8FAFC"/>
<path d="M317.452 267.304C314.687 267.323 311.967 266.605 309.572 265.224C303.804 261.888 300.5 254.928 300.5 246.104C300.5 230.6 310.356 212.768 322.9 205.504C329.676 201.592 336.404 201.168 341.852 204.312C347.612 207.64 350.924 214.608 350.924 223.424C350.924 238.928 341.068 256.768 328.484 264.032C325.156 266.068 321.352 267.197 317.452 267.304ZM333.98 213.4C332.033 213.538 330.15 214.156 328.5 215.2C319.38 220.44 311.7 234.608 311.7 246.104C311.7 250.76 313.004 254.296 315.188 255.552C317.676 256.992 321.14 255.424 322.972 254.36C332.116 249.088 339.828 234.92 339.828 223.424C339.828 218.768 338.524 215.24 336.34 213.976C335.62 213.574 334.804 213.374 333.98 213.4Z" fill="#455A64"/>
<path d="M341.788 225.904C341.788 217.192 336.3 213.976 336.3 213.976C338.484 215.24 339.788 218.776 339.788 223.424C339.788 234.92 332.076 249.088 322.932 254.36C321.1 255.424 317.644 256.992 315.148 255.552C315.148 255.552 319.78 258.432 326.18 254.936C335.444 249.888 341.788 237.4 341.788 225.904Z" fill="#37474F"/>
<path d="M332.988 117.032C332.932 115.538 332.3 114.124 331.223 113.087C330.147 112.05 328.711 111.471 327.216 111.471C325.721 111.471 324.285 112.05 323.208 113.087C322.132 114.124 321.499 115.538 321.444 117.032V208.8C321.485 209.314 321.663 209.808 321.96 210.23C322.257 210.652 322.662 210.987 323.132 211.2C324.397 211.839 325.794 212.172 327.212 212.172C328.629 212.172 330.027 211.839 331.292 211.2C331.764 210.989 332.171 210.655 332.469 210.232C332.767 209.81 332.947 209.315 332.988 208.8V117.048V117.032Z" fill="#37474F"/>
<path d="M328.38 137.544C328.317 136.387 327.982 135.261 327.402 134.257C326.823 133.254 326.015 132.401 325.044 131.768C324.701 131.517 324.296 131.365 323.873 131.328C323.45 131.291 323.025 131.372 322.644 131.56L308.42 139.76L308.076 139.96C308.024 139.981 307.975 140.011 307.932 140.048C307.69 140.212 307.462 140.396 307.252 140.6C306.45 141.4 305.962 142.461 305.877 143.591C305.793 144.72 306.117 145.843 306.792 146.753C307.466 147.663 308.445 148.3 309.551 148.548C310.656 148.796 311.813 148.639 312.812 148.104L313.084 147.944L327.412 139.696C327.749 139.455 328.016 139.129 328.187 138.751C328.357 138.373 328.423 137.956 328.38 137.544Z" fill="#455A64"/>
<path d="M328.38 160.52C328.315 159.364 327.98 158.24 327.4 157.238C326.821 156.236 326.014 155.384 325.044 154.752C324.703 154.498 324.298 154.343 323.874 154.305C323.451 154.267 323.025 154.347 322.644 154.536L305.956 164.136L305.612 164.336C305.56 164.359 305.512 164.388 305.468 164.424C305.224 164.586 304.996 164.771 304.788 164.976C304.267 165.495 303.874 166.128 303.64 166.825C303.406 167.522 303.337 168.264 303.44 168.992C303.542 169.72 303.813 170.414 304.23 171.02C304.647 171.625 305.2 172.125 305.844 172.48C306.539 172.849 307.313 173.041 308.1 173.04C308.884 173.044 309.657 172.851 310.348 172.48C310.444 172.432 310.532 172.368 310.62 172.32L327.42 162.72C327.763 162.474 328.034 162.139 328.203 161.752C328.372 161.365 328.433 160.939 328.38 160.52Z" fill="#455A64"/>
</svg>
