<svg width="48" height="36" viewBox="0 0 48 36" fill="none" xmlns="http://www.w3.org/2000/svg">
<path d="M31.6636 2.10294L31.6409 2.13116C30.8004 3.18119 30.7993 4.70609 31.638 5.75738L41.4105 18.0067L31.6433 30.2056C30.8012 31.2572 30.8012 32.7837 31.6434 33.8358L31.667 33.8652C32.2125 34.5467 33.0234 34.9375 33.8912 34.9375C34.7592 34.9375 35.5699 34.5467 36.1154 33.8652L47.369 19.8097C48.2104 18.7589 48.2109 17.2326 47.3705 16.1812L36.1133 2.10436C35.5678 1.42216 34.7567 1.03085 33.8882 1.03085C33.0202 1.03085 32.2094 1.42184 31.664 2.10294" fill="url(#paint0_linear_200_58021)"/>
<path d="M27.8056 11.3743L27.7815 11.4047C26.9363 12.4604 26.9391 13.9905 27.7882 15.0431L30.211 18.029L20.41 30.2653C19.5677 31.317 19.5676 32.8438 20.4107 33.8968L20.4356 33.9277C20.9811 34.6093 21.7917 35 22.6597 35C23.5277 35 24.3384 34.6093 24.8839 33.9277L36.1658 19.8368C37.011 18.7811 37.0082 17.251 36.1591 16.1984L32.2469 11.3666C31.7014 10.6903 30.8932 10.3027 30.0293 10.3027C29.1616 10.3027 28.3507 10.6933 27.8056 11.3743Z" fill="url(#paint1_linear_200_58021)"/>
<path d="M31.6636 2.10412L31.6409 2.13235C30.8004 3.18237 30.7993 4.70727 31.638 5.75856L38.4257 14.2666L43.4266 20.4881C43.4266 20.4881 45.0902 22.657 43.657 24.4473L47.369 19.8109C48.2104 18.7601 48.2109 17.2338 47.3705 16.1823L36.1133 2.10554C35.5678 1.42334 34.7567 1.03203 33.8882 1.03203C33.0202 1.03203 32.2094 1.42303 31.664 2.10412" fill="url(#paint2_linear_200_58021)"/>
<path d="M32.1952 15.5441L27.1943 21.7656L20.4065 30.2736C19.5679 31.3248 19.569 32.8498 20.4095 33.8998L20.4321 33.9281C20.9775 34.6092 21.7883 35 22.6563 35C23.5248 35 24.3361 34.6088 24.8816 33.9266L36.1387 19.8498C36.9796 18.7981 36.9792 17.2721 36.1371 16.221L32.4251 11.5849C33.8584 13.375 32.1947 15.5441 32.1947 15.5441" fill="url(#paint3_linear_200_58021)"/>
<path d="M11.8852 2.13451L0.631398 16.1899C-0.210047 17.241 -0.210519 18.767 0.630302 19.8186L11.8875 33.8954C12.4332 34.5776 13.2443 34.9688 14.1128 34.9688C14.9806 34.9688 15.7915 34.5779 16.3368 33.897L16.3595 33.8686C17.2 32.8186 17.2012 31.2935 16.3624 30.2425L6.59008 17.9932L16.3571 5.79415C17.1993 4.7427 17.1994 3.21607 16.357 2.16399L16.3334 2.13451C15.7879 1.45294 14.9774 1.06226 14.1092 1.06226C13.2414 1.06226 12.4307 1.45294 11.8852 2.13451Z" fill="url(#paint4_linear_200_58021)"/>
<path d="M23.1161 2.07234L11.8342 16.163C10.989 17.2189 10.9918 18.749 11.8409 19.8015L15.7533 24.6334C16.2988 25.3094 17.1069 25.6973 17.9707 25.6973C18.8387 25.6973 19.6492 25.3066 20.1944 24.6255L20.2186 24.5954C21.0638 23.5395 21.0612 22.0094 20.2119 20.9569L17.7889 17.9708L27.59 5.73465C28.4322 4.68305 28.4324 3.15626 27.5894 2.10324L27.5646 2.07234C27.0191 1.39061 26.2082 0.999929 25.3402 0.999929C24.4722 0.999929 23.6616 1.39061 23.1161 2.07234Z" fill="url(#paint5_linear_200_58021)"/>
<path d="M0.631398 16.1899C-0.210047 17.241 -0.210519 18.767 0.630302 19.8186L11.8875 33.8954C12.433 34.5776 13.2443 34.9688 14.1128 34.9688C14.9806 34.9688 15.7915 34.5779 16.3368 33.897L16.3595 33.8686C17.2 32.8186 17.2012 31.2935 16.3624 30.2425L9.57465 21.7343L4.57392 15.5129C4.57392 15.5129 2.91024 13.3439 4.34357 11.5538L0.631398 16.1899Z" fill="url(#paint6_linear_200_58021)"/>
<path d="M23.118 2.07445L11.8608 16.1511C11.0199 17.2027 11.0204 18.7289 11.8619 19.7798L15.5739 24.416C14.1407 22.6258 15.8042 20.457 15.8042 20.457L20.8051 14.2355L27.5929 5.72731C28.4315 4.67618 28.4304 3.15112 27.5899 2.10125L27.5673 2.07287C27.0219 1.39193 26.2111 1.00094 25.3431 1.00094C24.4746 1.00094 23.6635 1.39225 23.118 2.07445Z" fill="url(#paint7_linear_200_58021)"/>
<defs>
<linearGradient id="paint0_linear_200_58021" x1="25.0518" y1="29.6251" x2="40.6104" y2="9.92181" gradientUnits="userSpaceOnUse">
<stop stop-color="#0CE9C1"/>
<stop offset="1" stop-color="#0ACBA7"/>
</linearGradient>
<linearGradient id="paint1_linear_200_58021" x1="19.7784" y1="22.6513" x2="36.7978" y2="22.6513" gradientUnits="userSpaceOnUse">
<stop stop-color="#0CE9C1"/>
<stop offset="1" stop-color="#0ACBA7"/>
</linearGradient>
<linearGradient id="paint2_linear_200_58021" x1="48.0004" y1="12.7397" x2="31.0098" y2="12.7397" gradientUnits="userSpaceOnUse">
<stop stop-color="#0CE9C1"/>
<stop offset="1" stop-color="#0ACBA7"/>
</linearGradient>
<linearGradient id="paint3_linear_200_58021" x1="36.7691" y1="23.2924" x2="19.7784" y2="23.2924" gradientUnits="userSpaceOnUse">
<stop stop-color="#0CE9C1"/>
<stop offset="1" stop-color="#0ACBA7"/>
</linearGradient>
<linearGradient id="paint4_linear_200_58021" x1="22.8674" y1="7.64344" x2="8.10812" y2="24.7972" gradientUnits="userSpaceOnUse">
<stop stop-color="#0ACBA7"/>
<stop offset="1" stop-color="#0CE9C1"/>
</linearGradient>
<linearGradient id="paint5_linear_200_58021" x1="11.2022" y1="13.3486" x2="28.2216" y2="13.3486" gradientUnits="userSpaceOnUse">
<stop stop-color="#0ACBA7"/>
<stop offset="1" stop-color="#0CE9C1"/>
</linearGradient>
<linearGradient id="paint6_linear_200_58021" x1="3.29317e-05" y1="23.2613" x2="16.9907" y2="23.2613" gradientUnits="userSpaceOnUse">
<stop stop-color="#0ACBA7"/>
<stop offset="1" stop-color="#0CE9C1"/>
</linearGradient>
<linearGradient id="paint7_linear_200_58021" x1="28.2211" y1="12.7085" x2="11.2304" y2="12.7085" gradientUnits="userSpaceOnUse">
<stop stop-color="#0ACBA7"/>
<stop offset="1" stop-color="#0CE9C1"/>
</linearGradient>
</defs>
</svg>
