<?xml version="1.0" standalone="no"?>
<!DOCTYPE svg PUBLIC "-//W3C//DTD SVG 20010904//EN"
 "http://www.w3.org/TR/2001/REC-SVG-20010904/DTD/svg10.dtd">
<svg version="1.0" xmlns="http://www.w3.org/2000/svg"
 width="512.000000pt" height="512.000000pt" viewBox="0 0 512.000000 512.000000"
 preserveAspectRatio="xMidYMid meet">

<g transform="translate(0.000000,512.000000) scale(0.100000,-0.100000)"
fill="#000000" stroke="none">
<path d="M2875 4895 c-199 -37 -366 -161 -453 -337 -74 -148 -72 -116 -72
-933 0 -707 1 -733 21 -805 30 -111 80 -193 173 -285 90 -90 183 -143 296
-169 98 -23 1487 -24 1575 -1 230 60 409 237 473 468 15 56 17 132 17 797 l0
735 -23 75 c-34 110 -86 196 -166 276 -78 78 -163 130 -271 165 l-70 24 -715
2 c-558 1 -730 -1 -785 -12z m1480 -434 c22 -10 52 -31 67 -47 60 -64 58 -41
58 -782 0 -481 -3 -689 -11 -713 -18 -51 -55 -97 -102 -122 l-42 -22 -674 -3
c-756 -3 -746 -4 -814 65 -69 68 -68 58 -65 814 l3 674 22 42 c25 46 76 90
120 103 15 4 336 9 713 9 646 1 687 0 725 -18z"/>
<path d="M700 4034 c-229 -62 -404 -237 -467 -465 -26 -94 -27 -643 -1 -736
64 -231 245 -410 476 -468 52 -14 115 -16 385 -13 303 3 326 5 384 25 161 58
298 178 371 323 64 128 72 181 72 500 0 316 -8 371 -69 496 -73 146 -206 265
-363 322 l-73 27 -330 2 c-267 2 -340 -1 -385 -13z m646 -419 c29 -8 62 -28
81 -47 60 -62 63 -80 63 -370 0 -297 -4 -317 -76 -376 -57 -47 -111 -54 -382
-50 l-237 3 -47 28 c-51 29 -78 63 -96 116 -16 46 -16 515 -1 562 24 72 79
121 154 140 17 4 134 7 261 8 176 1 242 -2 280 -14z"/>
<path d="M702 1900 c-125 -33 -198 -75 -293 -170 -93 -93 -143 -176 -176 -290
-16 -57 -18 -105 -18 -375 0 -297 1 -313 23 -385 34 -110 86 -196 166 -276 80
-80 166 -132 276 -166 72 -22 88 -23 385 -23 270 0 318 2 375 18 174 49 335
182 410 338 65 137 72 188 68 534 -4 294 -5 301 -30 373 -37 104 -83 176 -158
252 -74 74 -165 130 -260 162 -60 20 -88 22 -380 25 -286 2 -322 1 -388 -17z
m673 -429 c49 -22 91 -69 105 -119 7 -24 10 -132 8 -308 l-3 -271 -29 -41
c-18 -26 -47 -51 -79 -67 -50 -25 -53 -25 -301 -25 -153 0 -267 4 -291 11 -54
15 -120 82 -134 137 -8 28 -11 129 -9 301 l3 258 30 48 c20 32 45 56 74 72 43
22 51 23 315 23 241 0 275 -2 311 -19z"/>
<path d="M2850 1904 c-206 -44 -393 -210 -468 -416 -27 -73 -27 -75 -30 -395
-3 -270 -1 -333 13 -385 59 -234 233 -411 466 -475 55 -15 108 -18 369 -18
261 0 314 3 369 18 234 64 407 240 466 475 14 52 16 115 13 385 l-3 322 -27
75 c-75 205 -265 371 -473 415 -96 20 -601 20 -695 -1z m659 -433 c57 -29 97
-82 111 -143 8 -35 11 -133 8 -293 -3 -226 -4 -242 -25 -282 -25 -47 -71 -84
-122 -102 -46 -15 -516 -15 -562 0 -51 18 -97 55 -122 102 -21 40 -22 56 -25
289 -4 283 3 331 60 384 66 63 67 63 366 64 251 0 276 -2 311 -19z"/>
</g>
</svg>
