<?xml version="1.0" standalone="no"?>
<!DOCTYPE svg PUBLIC "-//W3C//DTD SVG 20010904//EN"
 "http://www.w3.org/TR/2001/REC-SVG-20010904/DTD/svg10.dtd">
<svg version="1.0" xmlns="http://www.w3.org/2000/svg"
 width="512.000000pt" height="512.000000pt" viewBox="0 0 512.000000 512.000000"
 preserveAspectRatio="xMidYMid meet">

<g transform="translate(0.000000,512.000000) scale(0.100000,-0.100000)"
fill="#000000" stroke="none">
<path d="M3481 4749 c-28 -6 -140 -113 -619 -592 l-585 -585 -4 -49 c-4 -34 0
-59 10 -79 23 -43 1147 -1161 1180 -1173 41 -16 73 -13 115 8 48 25 1158 1137
1171 1174 15 39 14 83 -3 115 -8 15 -273 285 -589 600 -612 611 -596 598 -676
581z"/>
<path d="M432 4410 c-18 -11 -41 -34 -52 -52 -19 -32 -20 -52 -20 -848 0 -910
-4 -862 70 -905 34 -20 49 -20 857 -20 814 0 822 0 849 21 15 11 37 33 48 48
21 27 21 35 21 849 0 808 0 823 -20 857 -43 74 5 70 -905 70 -796 0 -816 -1
-848 -20z"/>
<path d="M432 2190 c-18 -11 -41 -34 -52 -52 -19 -32 -20 -52 -20 -848 0 -910
-4 -862 70 -905 34 -20 49 -20 857 -20 814 0 822 0 849 21 15 11 37 33 48 48
21 27 21 35 21 849 0 808 0 823 -20 857 -43 74 5 70 -905 70 -796 0 -816 -1
-848 -20z"/>
<path d="M2659 2187 c-73 -48 -69 1 -69 -900 0 -775 1 -809 19 -845 11 -20 34
-46 53 -57 32 -20 51 -20 855 -20 814 0 822 0 849 21 15 11 37 33 48 48 21 27
21 35 21 856 0 822 0 829 -21 857 -11 15 -36 36 -55 45 -32 17 -93 18 -850 18
l-816 0 -34 -23z"/>
</g>
</svg>
