<?xml version="1.0" standalone="no"?>
<!DOCTYPE svg PUBLIC "-//W3C//DTD SVG 20010904//EN"
 "http://www.w3.org/TR/2001/REC-SVG-20010904/DTD/svg10.dtd">
<svg version="1.0" xmlns="http://www.w3.org/2000/svg"
 width="512.000000pt" height="512.000000pt" viewBox="0 0 512.000000 512.000000"
 preserveAspectRatio="xMidYMid meet">

<g transform="translate(0.000000,512.000000) scale(0.100000,-0.100000)"
fill="#000000" stroke="none">
<path d="M533 4905 c-163 -44 -275 -158 -318 -322 -22 -85 -22 -1521 0 -1606
38 -145 132 -249 280 -308 l60 -24 735 -3 c490 -2 758 1 805 8 199 31 344 176
375 375 7 47 10 314 8 805 -3 726 -4 736 -25 792 -55 145 -165 245 -310 283
-83 22 -1530 21 -1610 0z m687 -615 l0 -390 -390 0 -390 0 0 303 c0 182 4 317
11 340 13 47 77 113 121 126 18 5 171 10 341 10 l307 1 0 -390z m888 374 c44
-18 87 -57 110 -99 15 -26 17 -74 20 -347 l3 -318 -390 0 -391 0 0 390 0 390
305 0 c254 0 312 -3 343 -16z m-890 -1391 l-3 -388 -305 0 c-168 0 -317 3
-332 8 -40 11 -98 66 -119 112 -17 36 -19 72 -19 348 l0 307 390 0 390 0 -2
-387z m1022 96 c0 -336 -4 -364 -65 -424 -60 -61 -88 -65 -424 -65 l-291 0 0
390 0 390 390 0 390 0 0 -291z"/>
<path d="M2973 4905 c-141 -38 -252 -141 -306 -283 -21 -56 -22 -66 -25 -792
-2 -491 1 -758 8 -805 31 -199 176 -344 375 -375 47 -7 314 -10 805 -8 722 3
736 4 791 25 77 29 126 61 181 120 54 59 82 110 103 190 22 85 22 1521 0 1606
-44 168 -170 291 -333 326 -37 8 -282 11 -800 10 -611 0 -757 -3 -799 -14z
m1614 -257 c22 -15 51 -44 64 -65 l24 -38 3 -740 c2 -516 0 -751 -8 -778 -13
-44 -60 -101 -104 -125 -28 -15 -96 -17 -751 -20 -522 -2 -735 0 -774 8 -75
17 -134 76 -151 151 -8 39 -10 252 -8 774 3 792 0 745 65 807 63 60 28 58 849
55 l750 -2 41 -27z"/>
<path d="M570 2470 c-104 -19 -183 -63 -257 -143 -50 -54 -78 -107 -98 -184
-22 -85 -22 -1521 0 -1606 43 -165 157 -279 322 -322 85 -22 1521 -22 1606 0
145 38 249 132 308 280 l24 60 3 735 c2 490 -1 758 -8 805 -30 197 -176 344
-370 375 -77 12 -1462 12 -1530 0z m1518 -242 c67 -17 126 -79 142 -149 8 -39
10 -252 8 -774 -3 -655 -5 -723 -20 -751 -24 -44 -81 -91 -125 -104 -27 -8
-262 -10 -778 -8 l-740 3 -38 24 c-21 13 -50 42 -65 64 l-27 41 -3 745 c-3
835 -6 798 68 865 22 20 52 38 67 42 16 3 33 7 38 9 6 2 329 4 718 4 509 1
721 -2 755 -11z"/>
<path d="M3010 2469 c-186 -32 -331 -182 -360 -374 -7 -47 -10 -314 -8 -805 3
-726 4 -736 25 -792 39 -103 124 -203 212 -247 99 -51 103 -51 898 -51 512 0
758 3 795 11 163 35 289 158 333 326 22 85 22 1521 0 1606 -21 80 -49 131
-103 190 -55 59 -104 91 -181 120 -55 21 -67 22 -806 23 -425 1 -774 -2 -805
-7z m1556 -251 c44 -24 91 -81 104 -125 8 -27 10 -262 8 -778 l-3 -740 -24
-38 c-13 -21 -42 -50 -64 -65 l-41 -27 -740 -3 c-517 -2 -752 0 -779 8 -44 13
-101 60 -125 104 -15 28 -17 96 -20 751 -2 522 0 735 8 774 15 66 75 133 136
149 26 7 287 10 774 9 671 -2 738 -3 766 -19z"/>
<path d="M3645 2106 c-171 -34 -283 -94 -410 -221 -129 -129 -189 -243 -221
-415 -18 -98 -17 -158 1 -265 76 -433 493 -717 923 -629 363 75 622 392 622
764 0 351 -241 664 -579 751 -100 26 -246 32 -336 15z m231 -237 c257 -47 444
-271 444 -532 0 -143 -55 -273 -160 -377 -311 -312 -834 -143 -911 294 -27
157 22 320 133 441 131 144 312 207 494 174z"/>
<path d="M3718 1712 c-49 -29 -58 -65 -58 -220 l0 -141 -91 -52 c-95 -55 -115
-75 -125 -126 -8 -41 20 -99 57 -118 56 -29 91 -20 233 61 85 49 139 87 150
104 23 40 24 406 1 450 -29 56 -112 77 -167 42z"/>
</g>
</svg>
